<svg width="401" height="400" viewBox="0 0 401 400" fill="none" xmlns="http://www.w3.org/2000/svg">
<rect id="Rectangle 1" x="0.5" y="0.5" width="399" height="399" fill="#C5FFA2" stroke="#156800"/>
<path id="Vector 2" d="M222.5 397.5V377.5H272.5V298.5H398" stroke="black"/>
<path id="Vector 3" d="M232.5 346H189.5V285.5H232.5V346Z" stroke="black"/>
<rect id="Rectangle 2" x="58.25" y="312.25" width="44.5" height="44.5" fill="#8F8888" stroke="black" stroke-width="0.5"/>
<path id="Vector 1" d="M102 312.5V298H152V376.5H200.5V398" stroke="black"/>
<path id="Vector 4" d="M57 310V298.5H0" stroke="black"/>
<path id="Arrow 1" d="M212.061 359.939C211.475 359.354 210.525 359.354 209.939 359.939L200.393 369.485C199.808 370.071 199.808 371.021 200.393 371.607C200.979 372.192 201.929 372.192 202.515 371.607L211 363.121L219.485 371.607C220.071 372.192 221.021 372.192 221.607 371.607C222.192 371.021 222.192 370.071 221.607 369.485L212.061 359.939ZM212.5 399V361H209.5V399H212.5Z" fill="#FF0000"/>
<path id="Vector 5" d="M1 239H134V169" stroke="black"/>
<path id="Vector 6" d="M401 244H269V172" stroke="black"/>
</svg>
