<svg width="724" height="387" viewBox="0 0 724 387" fill="none" xmlns="http://www.w3.org/2000/svg">
<rect width="724" height="387" fill="#E5E5E5"/>
<g id="afficheur">
<rect id="Rectangle 1" x="1.5" y="1.5" width="721" height="384" rx="15.5" fill="#272727" stroke="black" stroke-width="3"/>
<g id="digit">
<path id="minus" d="M57 191L91 178.01L159 178.01L193 191L159 203.99L91 203.99L57 191Z" fill="#0F0F0F"/>
<path id="0" d="M255 193L289 180.01L357 180.01L391 193L357 205.99L289 205.99L255 193Z" fill="#00FF00"/>
<path id="1" d="M255 50L289 37.0096L357 37.0096L391 50L357 62.9904L289 62.9904L255 50Z" fill="#0F0F0F"/>
<path id="2" d="M394 55L406.99 89V157L394 191L381.01 157V89L394 55Z" fill="#00FF00"/>
<path id="3" d="M394 196L406.99 230V298L394 332L381.01 298V230L394 196Z" fill="#00FF00"/>
<path id="4" d="M255 336L289 323.01L357 323.01L391 336L357 348.99L289 348.99L255 336Z" fill="#0F0F0F"/>
<path id="5" d="M249 196L261.99 230V298L249 332L236.01 298V230L249 196Z" fill="#0F0F0F"/>
<path id="6" d="M249 55L261.99 89V157L249 191L236.01 157V89L249 55Z" fill="#00FF00"/>
</g>
<path id="up" d="M609.303 70.7141C606.374 67.7852 601.626 67.7852 598.697 70.7141L550.967 118.444C548.038 121.373 548.038 126.121 550.967 129.05C553.896 131.979 558.645 131.979 561.574 129.05L604 86.624L646.426 129.05C649.355 131.979 654.104 131.979 657.033 129.05C659.962 126.121 659.962 121.373 657.033 118.444L609.303 70.7141ZM611.5 306.017V76.0174H596.5V306.017H611.5Z" fill="#00FF00"/>
</g>
</svg>
