<svg width="499" height="501" viewBox="0 0 499 501" fill="none" xmlns="http://www.w3.org/2000/svg">
<g id="background">
<rect id="Rectangle 1" y="200" width="498.756" height="300" fill="#72f383"/>
<line id="Line 3" x1="106" y1="499.5" x2="156" y2="499.5" stroke="black"/>
<line id="Line 4" x1="219.453" y1="499.5" x2="281.797" y2="499.5" stroke="black"/>
<line id="Line 5" x1="393" y1="499.5" x2="443" y2="499.5" stroke="black"/>
<line id="Line 2" x1="33" y1="499.5" x2="83" y2="499.5" stroke="black"/>
</g>
<g id="entree gauche">
<path id="Vector 3" d="M93.5 370V362.5M139 322H93.5V362.5M93.5 362.5H26V369.5M26.5 401H26V415.5" stroke="black" stroke-linecap="round" stroke-linejoin="round"/>
<path id="escalier gauche" d="M56 476H60H63.5M56 476H26V466M56 476V466M63.5 476H93.5V466M63.5 476V466M63.5 466H93.5M63.5 466V455.5M93.5 466V455.5M93.5 455.5V445.5H63.5V455.5M93.5 455.5H63.5M56 445.5H26M56 445.5V455.5M56 445.5V435.5M26 445.5V455.5M26 445.5V435.5M26 466H56M26 466V455.5M56 466V455.5M56 455.5H26M26 435.5H56M26 435.5V425M56 435.5V425M56 425V415H26V425M56 425H26" stroke="black" stroke-linecap="round" stroke-linejoin="round"/>
<path id="Vector 2" d="M93.5 445V401" stroke="black" stroke-linecap="round" stroke-linejoin="round"/>
<g id="porte">
<line id="Line 7" x1="94" y1="369.5" x2="62" y2="369.5" stroke="black"/>
<path id="Vector 4" opacity="0.3" d="M93.5 401C69.5 401 62.8333 380 62.5 369.5" stroke="black" stroke-linecap="round" stroke-linejoin="round"/>
<line id="Line 6" opacity="0.3" x1="93.5" y1="401" x2="93.5" y2="369" stroke="black"/>
</g>
<g id="porte_2">
<line id="Line 7_2" y1="-0.5" x2="32" y2="-0.5" transform="matrix(1 0 0 -1 26.5 369)" stroke="black"/>
<path id="Vector 4_2" opacity="0.3" d="M27 401C51 401 57.6667 380 58 369.5" stroke="black" stroke-linecap="round" stroke-linejoin="round"/>
<line id="Line 6_2" opacity="0.3" y1="-0.5" x2="32" y2="-0.5" transform="matrix(0 -1 -1 0 26 401)" stroke="black"/>
</g>
<path id="Vector 5" d="M26 476.5V500M93.5 476.5V500" stroke="black" stroke-linecap="round" stroke-linejoin="round"/>
</g>
<g id="porte vitree">
<g id="porte_3">
<line id="Line 7_3" x1="418" y1="334.5" x2="386" y2="334.5" stroke="black"/>
<path id="Vector 4_3" opacity="0.3" d="M417.5 366C393.5 366 386.833 345 386.5 334.5" stroke="black" stroke-linecap="round" stroke-linejoin="round"/>
<line id="Line 6_3" opacity="0.3" x1="417.5" y1="366" x2="417.5" y2="334" stroke="black"/>
</g>
<g id="porte_4">
<line id="Line 7_4" y1="-0.5" x2="32" y2="-0.5" transform="matrix(-1 0 0 1 418 398)" stroke="black"/>
<path id="Vector 4_4" opacity="0.3" d="M417.5 366C393.5 366 386.833 387 386.5 397.5" stroke="black" stroke-linecap="round" stroke-linejoin="round"/>
<line id="Line 6_4" opacity="0.3" y1="-0.5" x2="32" y2="-0.5" transform="matrix(0 1 1 0 418 366)" stroke="black"/>
</g>
<path id="Vector 10" d="M418 410V397.5M418 334.5L418 322" stroke="black" stroke-linecap="square" stroke-linejoin="round"/>
</g>
<g id="entree droite">
<path id="Vector 9" d="M417 409.5H418V446H414.5" stroke="black" stroke-linecap="square" stroke-linejoin="round"/>
<path id="escalier gauche_2" d="M422 476.5H418H414.5M422 476.5H452V466.5M422 476.5V466.5M414.5 476.5H384.5V466.5M414.5 476.5V466.5M414.5 466.5H384.5M414.5 466.5V456M384.5 466.5V456M384.5 456V446H414.5V456M384.5 456H414.5M422 446H452M422 446V456M422 446V436M452 446V456M452 446V436M452 466.5H422M452 466.5V456M422 466.5V456M422 456H452M452 436H422M452 436V425.5M422 436V425.5M422 425.5V415.5H452V425.5M422 425.5H452" stroke="black" stroke-linecap="round" stroke-linejoin="round"/>
<path id="Vector 7" d="M383.5 476.5V409.5H385.5" stroke="black" stroke-linecap="square" stroke-linejoin="round"/>
<g id="porte_5">
<path id="Vector 8" opacity="0.3" d="M386 440.5C410.8 440.5 417 419.833 417 409.5" stroke="black" stroke-linecap="square" stroke-linejoin="round"/>
<line id="Line 9" x1="386" y1="409" x2="386" y2="441" stroke="black"/>
<line id="Line 10" opacity="0.3" x1="385.5" y1="409.5" x2="417.5" y2="409.5" stroke="black"/>
</g>
<path id="Vector 12" d="M384.5 476.5V499.5M452 476.5H454V499.5" stroke="black" stroke-linecap="square" stroke-linejoin="round"/>
<line id="Line 11" x1="383.5" y1="476.5" x2="383.5" y2="499.5" stroke="black"/>
</g>
<g id="entree endicapes">
<line id="Line 8" opacity="0.4" x1="105.5" y1="476.5" x2="155.5" y2="476.5" stroke="black"/>
<path id="entree endicapes_2" d="M94 401V414.5M94 499.5V476.5M94 476.5H105M94 476.5V441M156 476.5H161.5M161.5 476.5V456H154.5V448H157.5M161.5 476.5V499.5M157.5 417H154.5V411M154.5 409.5H162V412M154.5 409.5H128.5M154.5 409.5V411M193 412.5V409.5H221.5M128.5 409.5V411H154.5M128.5 409.5V414.5M128.5 414.5H94M128.5 414.5V423M94 414.5V423M94 423H128.5M94 423V432M128.5 423V432M128.5 432H94M128.5 432V441H94M94 432V441" stroke="black" stroke-linecap="square" stroke-linejoin="round"/>
</g>
<rect id="ascenseur" x="158.25" y="412.25" width="39.5" height="39.5" fill="#C4C4C4" stroke="#7C7C7C" stroke-width="0.5"/>
<g id="hall">
<path id="Vector 11" d="M252.5 410.5L309.5 410.5M340.5 410.5L383.5 410.5" stroke="black" stroke-linecap="square" stroke-linejoin="round"/>
<g id="porte_6">
<path id="Vector 8_2" opacity="0.3" d="M309.5 441.5C334.3 441.5 340.5 420.833 340.5 410.5" stroke="black" stroke-linecap="square" stroke-linejoin="round"/>
<line id="Line 9_2" x1="309.5" y1="410" x2="309.5" y2="442" stroke="black"/>
<line id="Line 10_2" opacity="0.3" x1="309" y1="410.5" x2="341" y2="410.5" stroke="black"/>
</g>
<g id="porte_7">
<path id="Vector 8_3" opacity="0.3" d="M221.5 441.5C246.3 441.5 252.5 420.833 252.5 410.5" stroke="black" stroke-linecap="square" stroke-linejoin="round"/>
<line id="Line 9_3" x1="221.5" y1="410" x2="221.5" y2="442" stroke="black"/>
<line id="Line 10_3" opacity="0.3" x1="221" y1="410.5" x2="253" y2="410.5" stroke="black"/>
</g>
<path id="Vector 14" d="M170.5 322H348V316.5H352.5" stroke="black" stroke-linecap="square" stroke-linejoin="round"/>
<g id="porte_8">
<path id="Vector 8_4" opacity="0.3" d="M139.5 291C164.3 291 170.5 311.667 170.5 322" stroke="black" stroke-linecap="square" stroke-linejoin="round"/>
<line id="Line 9_4" y1="-0.5" x2="32" y2="-0.5" transform="matrix(0 -1 -1 0 139 322.5)" stroke="black"/>
<line id="Line 10_4" opacity="0.3" y1="-0.5" x2="32" y2="-0.5" transform="matrix(1 0 0 -1 139 321.5)" stroke="black"/>
</g>
<g id="porte_9">
<path id="Vector 8_5" opacity="0.3" d="M352.5 347.5C377.3 347.5 383.5 326.833 383.5 316.5" stroke="black" stroke-linecap="square" stroke-linejoin="round"/>
<line id="Line 9_5" x1="352.5" y1="316" x2="352.5" y2="348" stroke="black"/>
<line id="Line 10_5" opacity="0.3" x1="352" y1="316.5" x2="384" y2="316.5" stroke="black"/>
</g>
<path id="Vector 13" d="M418 322H387.5V316.5H383.5" stroke="black" stroke-linecap="square" stroke-linejoin="round"/>
<rect id="Rectangle 4" x="281.5" y="323.5" width="5" height="5" fill="#C4C4C4" fill-opacity="0.4" stroke="black"/>
<rect id="Rectangle 3" x="288.5" y="322.5" width="26" height="9" fill="#C4C4C4" fill-opacity="0.4" stroke="black"/>
<rect id="Rectangle 2" x="316.5" y="322.5" width="26" height="9" fill="#C4C4C4" fill-opacity="0.4" stroke="black"/>
</g>
<g id="Salles">
<g id="porte_10">
<path id="Vector 8_6" opacity="0.3" d="M418.5 287.5C443.3 287.5 449.5 308.167 449.5 318.5" stroke="black" stroke-linecap="square" stroke-linejoin="round"/>
<line id="Line 9_6" y1="-0.5" x2="32" y2="-0.5" transform="matrix(0 -1 -1 0 418 319)" stroke="black"/>
<line id="Line 10_6" opacity="0.3" y1="-0.5" x2="32" y2="-0.5" transform="matrix(1 0 0 -1 418 318)" stroke="black"/>
</g>
<g id="porte_11">
<line id="Line 7_5" y1="-0.5" x2="32" y2="-0.5" transform="matrix(1 0 0 -1 450.5 358)" stroke="black"/>
<path id="Vector 4_5" opacity="0.3" d="M451 390C475 390 481.667 369 482 358.5" stroke="black" stroke-linecap="round" stroke-linejoin="round"/>
<line id="Line 6_5" opacity="0.3" y1="-0.5" x2="32" y2="-0.5" transform="matrix(0 -1 -1 0 450 390)" stroke="black"/>
</g>
<path id="Vector 15" d="M418 322V318.5M449.5 318.5L450.5 358.5M450.5 390V399H418" stroke="black" stroke-linecap="square" stroke-linejoin="round"/>
</g>
</svg>
