<svg width="499" height="501" viewBox="0 0 499 501" fill="none" xmlns="http://www.w3.org/2000/svg">
<g id="background">
<rect id="Rectangle 1" y="200" width="500" height="300" fill="#54FF84"/>
<line id="Line 3" x1="106" y1="499.5" x2="156" y2="499.5" stroke="black"/>
<line id="Line 4" x1="219.453" y1="499.5" x2="281.797" y2="499.5" stroke="black"/>
<line id="Line 5" x1="393" y1="499.5" x2="443" y2="499.5" stroke="black"/>
<line id="Line 2" x1="33" y1="499.5" x2="83" y2="499.5" stroke="black"/>
</g>
<g id="porte">
<path id="Vector 8" opacity="0.3" d="M168.5 494C193.3 494 199.5 473.333 199.5 463" stroke="black" stroke-linecap="square" stroke-linejoin="round"/>
<line id="Line 9" x1="168.5" y1="462.5" x2="168.5" y2="494.5" stroke="black"/>
<line id="Line 10" opacity="0.3" x1="168" y1="463" x2="200" y2="463" stroke="black"/>
</g>
<path id="Vector 3" d="M93.5 347V339.5M139 299H93.5V339.5M93.5 339.5H26V346.5M26 378V415" stroke="black" stroke-linecap="round" stroke-linejoin="round"/>
<path id="escalier gauche" d="M56 476H60H63.5M56 476H26V466M56 476V466M63.5 476H93.5V466M63.5 476V466M63.5 466H93.5M63.5 466V455.5M93.5 466V455.5M93.5 455.5V445.5H63.5V455.5M93.5 455.5H63.5M56 445.5H26M56 445.5V455.5M56 445.5V435.5M26 445.5V455.5M26 445.5V435.5M26 466H56M26 466V455.5M56 466V455.5M56 455.5H26M26 435.5H56M26 435.5V425M56 435.5V425M56 425V415H26V425M56 425H26" stroke="black" stroke-linecap="round" stroke-linejoin="round"/>
<path id="Vector 2" d="M93.5 445.755V378" stroke="black" stroke-linecap="round" stroke-linejoin="round"/>
<g id="porte_2">
<line id="Line 7" x1="94" y1="346.5" x2="62" y2="346.5" stroke="black"/>
<path id="Vector 4" opacity="0.3" d="M93.5 378C69.5 378 62.8333 357 62.5 346.5" stroke="black" stroke-linecap="round" stroke-linejoin="round"/>
<line id="Line 6" opacity="0.3" x1="93.5" y1="378" x2="93.5" y2="346" stroke="black"/>
</g>
<g id="porte_3">
<line id="Line 7_2" y1="-0.5" x2="32" y2="-0.5" transform="matrix(1 0 0 -1 26 346)" stroke="black"/>
<path id="Vector 4_2" opacity="0.3" d="M26.5 378C50.5 378 57.1667 357 57.5 346.5" stroke="black" stroke-linecap="round" stroke-linejoin="round"/>
<line id="Line 6_2" opacity="0.3" y1="-0.5" x2="32" y2="-0.5" transform="matrix(0 -1 -1 0 25.5 378)" stroke="black"/>
</g>
<path id="Vector 5" d="M26 476.5V500M93.5 476.5V500" stroke="black" stroke-linecap="round" stroke-linejoin="round"/>
<g id="porte_4">
<line id="Line 7_3" x1="418" y1="311.5" x2="386" y2="311.5" stroke="black"/>
<path id="Vector 4_3" opacity="0.3" d="M417.5 343C393.5 343 386.833 322 386.5 311.5" stroke="black" stroke-linecap="round" stroke-linejoin="round"/>
<line id="Line 6_3" opacity="0.3" x1="417.5" y1="343" x2="417.5" y2="311" stroke="black"/>
</g>
<g id="porte_5">
<line id="Line 7_4" y1="-0.5" x2="32" y2="-0.5" transform="matrix(-1 0 0 1 418 375)" stroke="black"/>
<path id="Vector 4_4" opacity="0.3" d="M417.5 343C393.5 343 386.833 364 386.5 374.5" stroke="black" stroke-linecap="round" stroke-linejoin="round"/>
<line id="Line 6_4" opacity="0.3" y1="-0.5" x2="32" y2="-0.5" transform="matrix(0 1 1 0 418 343)" stroke="black"/>
</g>
<path id="Vector 10" d="M418 409.5L418 374.5M418 311.5L418 299" stroke="black" stroke-linecap="square" stroke-linejoin="round"/>
<path id="Vector 9" d="M417 409.5H418V446H414.5" stroke="black" stroke-linecap="square" stroke-linejoin="round"/>
<path id="escalier gauche_2" d="M422 476.5H418H414.5M422 476.5H452V466.5M422 476.5V466.5M414.5 476.5H384.5V466.5M414.5 476.5V466.5M414.5 466.5H384.5M414.5 466.5V456M384.5 466.5V456M384.5 456V446H414.5V456M384.5 456H414.5M422 446H452M422 446V456M422 446V436M452 446V456M452 446V436M452 466.5H422M452 466.5V456M422 466.5V456M422 456H452M452 436H422M452 436V425.5M422 436V425.5M422 425.5V415.5H452V425.5M422 425.5H452" stroke="black" stroke-linecap="round" stroke-linejoin="round"/>
<path id="Vector 7" d="M383.5 476.5V409.5H385.5" stroke="black" stroke-linecap="square" stroke-linejoin="round"/>
<g id="porte_6">
<path id="Vector 8_2" opacity="0.3" d="M386 440.5C410.8 440.5 417 419.833 417 409.5" stroke="black" stroke-linecap="square" stroke-linejoin="round"/>
<line id="Line 9_2" x1="386" y1="409" x2="386" y2="441" stroke="black"/>
<line id="Line 10_2" opacity="0.3" x1="385.5" y1="409.5" x2="417.5" y2="409.5" stroke="black"/>
</g>
<path id="Vector 12" d="M384.5 476.5V499.5M452 476.5H454V499.5" stroke="black" stroke-linecap="square" stroke-linejoin="round"/>
<line id="Line 11" x1="383.5" y1="476.5" x2="383.5" y2="499.5" stroke="black"/>
<path id="Line 8" opacity="0.4" d="M105.5 453.5H155.5" stroke="black"/>
<path id="entree endicapes" d="M94 378V391.5M94 476.5V453.5M94 453.5H105M94 453.5V418M156 453.5H161.5M161.5 453.5V433H154.5V425H157.5M161.5 453.5V463H168.5M157.5 394H154.5V388M154.5 386.5H162V389M154.5 386.5H128.5M154.5 386.5V388M193 389.5V386.5H221.5M128.5 386.5V388H154.5M128.5 386.5V391.5M128.5 391.5H94M128.5 391.5V400M94 391.5V400M94 400H128.5M94 400V409M128.5 400V409M128.5 409H94M128.5 409V418H94M94 409V418M209.5 499.5V463H199.5" stroke="black" stroke-linecap="square" stroke-linejoin="round"/>
<rect id="ascenseur" x="158.25" y="389.25" width="39.5" height="39.5" fill="#C4C4C4" stroke="#7C7C7C" stroke-width="0.5"/>
<path id="Vector 11" d="M253.5 386.567L310.5 386.567M341.5 386.567L383.5 386.567L383.5 409.5" stroke="black" stroke-linecap="square" stroke-linejoin="round"/>
<g id="porte_7">
<path id="Vector 8_3" opacity="0.3" d="M310.5 417.567C335.3 417.567 341.5 396.9 341.5 386.567" stroke="black" stroke-linecap="square" stroke-linejoin="round"/>
<line id="Line 9_3" x1="310.5" y1="386.067" x2="310.5" y2="418.067" stroke="black"/>
<line id="Line 10_3" opacity="0.3" x1="310" y1="386.567" x2="342" y2="386.567" stroke="black"/>
</g>
<g id="porte_8">
<path id="Vector 8_4" opacity="0.3" d="M222.5 417.567C247.3 417.567 253.5 396.9 253.5 386.567" stroke="black" stroke-linecap="square" stroke-linejoin="round"/>
<line id="Line 9_4" x1="222.5" y1="386.067" x2="222.5" y2="418.067" stroke="black"/>
<line id="Line 10_4" opacity="0.3" x1="222" y1="386.567" x2="254" y2="386.567" stroke="black"/>
</g>
<path id="Vector 14" d="M170.5 299H348V293.5H352.5" stroke="black" stroke-linecap="square" stroke-linejoin="round"/>
<g id="porte_9">
<path id="Vector 8_5" opacity="0.3" d="M139.5 268C164.3 268 170.5 288.667 170.5 299" stroke="black" stroke-linecap="square" stroke-linejoin="round"/>
<line id="Line 9_5" y1="-0.5" x2="32" y2="-0.5" transform="matrix(0 -1 -1 0 139 299.5)" stroke="black"/>
<line id="Line 10_5" opacity="0.3" y1="-0.5" x2="32" y2="-0.5" transform="matrix(1 0 0 -1 139 298.5)" stroke="black"/>
</g>
<g id="porte_10">
<path id="Vector 8_6" opacity="0.3" d="M352.5 324.5C377.3 324.5 383.5 303.833 383.5 293.5" stroke="black" stroke-linecap="square" stroke-linejoin="round"/>
<line id="Line 9_6" x1="352.5" y1="293" x2="352.5" y2="325" stroke="black"/>
<line id="Line 10_6" opacity="0.3" x1="352" y1="293.5" x2="384" y2="293.5" stroke="black"/>
</g>
<path id="Vector 13" d="M418 299H387.5V293.5H383.5" stroke="black" stroke-linecap="square" stroke-linejoin="round"/>
<rect id="Rectangle 4" x="281.5" y="300.5" width="5" height="5" fill="#C4C4C4" fill-opacity="0.4" stroke="black"/>
<rect id="Rectangle 3" x="288.5" y="299.5" width="26" height="9" fill="#C4C4C4" fill-opacity="0.4" stroke="black"/>
<rect id="Rectangle 2" x="316.5" y="299.5" width="26" height="9" fill="#C4C4C4" fill-opacity="0.4" stroke="black"/>
<g id="porte_11">
<path id="Vector 8_7" opacity="0.3" d="M418.5 264.5C443.3 264.5 449.5 285.167 449.5 295.5" stroke="black" stroke-linecap="square" stroke-linejoin="round"/>
<line id="Line 9_7" y1="-0.5" x2="32" y2="-0.5" transform="matrix(0 -1 -1 0 418 296)" stroke="black"/>
<line id="Line 10_7" opacity="0.3" y1="-0.5" x2="32" y2="-0.5" transform="matrix(1 0 0 -1 418 295)" stroke="black"/>
</g>
<g id="porte_12">
<line id="Line 7_5" y1="-0.5" x2="32" y2="-0.5" transform="matrix(1 0 0 -1 450.5 335)" stroke="black"/>
<path id="Vector 4_5" opacity="0.3" d="M451 367C475 367 481.667 346 482 335.5" stroke="black" stroke-linecap="round" stroke-linejoin="round"/>
<line id="Line 6_5" opacity="0.3" y1="-0.5" x2="32" y2="-0.5" transform="matrix(0 -1 -1 0 450 367)" stroke="black"/>
</g>
<path id="Vector 15" d="M418 299V295.5M449.5 295.5L450.5 335.5M450.5 367V376H418" stroke="black" stroke-linecap="square" stroke-linejoin="round"/>
</svg>
