<svg width="400" height="400" viewBox="0 0 400 400" fill="none" xmlns="http://www.w3.org/2000/svg">
<rect id="Rectangle 1" x="0.5" y="100.5" width="399" height="299" fill="#C5FFA2" stroke="#156800"/>
<rect id="Rectangle 2" x="58.5" y="312.5" width="44" height="44" fill="#C4C4C4" stroke="black" stroke-width="0.5"/>
<path id="Vector 1" d="M19 344L24 325V302H60V311V312.5H103V302H143V299.5M24 346V372H35L58 378.5M60 372H110.5L136.5 378M138.5 372H143V346H174L198.5 352.5M201 346H247L269 352.5M271.5 346H293V338L297 316.5M293 314.5V302H269L247 291M247 302H210.75H174.5V299.5M139.5 297.5L143 282H174L177 295.5" stroke="black"/>
</svg>
