<?xml version="1.0" encoding="UTF-8" standalone="no"?>
<svg
   xmlns:dc="http://purl.org/dc/elements/1.1/"
   xmlns:cc="http://creativecommons.org/ns#"
   xmlns:rdf="http://www.w3.org/1999/02/22-rdf-syntax-ns#"
   xmlns:svg="http://www.w3.org/2000/svg"
   xmlns="http://www.w3.org/2000/svg"
   xmlns:sodipodi="http://sodipodi.sourceforge.net/DTD/sodipodi-0.dtd"
   xmlns:inkscape="http://www.inkscape.org/namespaces/inkscape"
   viewBox="0 0 124.0125 63.362499"
   height="63.362499"
   width="124.0125"
   xml:space="preserve"
   version="1.1"
   id="svg2"
   inkscape:version="0.91 r13725"
   sodipodi:docname="LOGO_MEB2.svg"><sodipodi:namedview
     pagecolor="#ffffff"
     bordercolor="#666666"
     borderopacity="1"
     objecttolerance="10"
     gridtolerance="10"
     guidetolerance="10"
     inkscape:pageopacity="0"
     inkscape:pageshadow="2"
     inkscape:window-width="1920"
     inkscape:window-height="1017"
     id="namedview3381"
     showgrid="false"
     inkscape:zoom="53.154469"
     inkscape:cx="95.461133"
     inkscape:cy="-0.85550546"
     inkscape:window-x="-8"
     inkscape:window-y="-8"
     inkscape:window-maximized="1"
     inkscape:current-layer="svg2" /><metadata
     id="metadata8"><rdf:RDF><cc:Work
         rdf:about=""><dc:format>image/svg+xml</dc:format><dc:type
           rdf:resource="http://purl.org/dc/dcmitype/StillImage" /><dc:title></dc:title></cc:Work></rdf:RDF></metadata><defs
     id="defs6" /><g
     transform="matrix(1.25,0,0,-1.25,0,63.3625)"
     id="g10"
     style="fill:#ffffff"><g
       transform="scale(0.1,0.1)"
       id="g12"
       style="fill:#ffffff"><path
         id="path14"
         style="fill:#ffffff;fill-opacity:1;fill-rule:nonzero;stroke:none"
         d="M 27.8281,81.6406 6.01563,121.18 l 0,-39.6175 -6.01563,0 0,53.5545 5.26172,0 22.56638,-42.324 22.5547,42.324 5.2656,0 0,-53.5545 -6.0156,0 0,39.6175 -21.8047,-39.5394" /><path
         id="path16"
         style="fill:#ffffff;fill-opacity:1;fill-rule:nonzero;stroke:none"
         d="m 89.7031,99.5391 25.2699,0 -12.637,29.2889 -12.6329,-29.2889 z m -1.8086,-5.2422 -5.5586,-12.7344 -6.3164,0 23.3086,53.5545 6.0159,0 23.312,-53.5545 -6.316,0 -5.567,12.7344 -28.8785,0" /><path
         id="path18"
         style="fill:#ffffff;fill-opacity:1;fill-rule:nonzero;stroke:none"
         d="m 172.172,105.828 c 6.773,0 12.187,5.246 12.187,11.985 0,6.66 -5.117,12.058 -13.312,12.058 l -16.766,0 0,-24.043 17.891,0 z m 17.894,-24.2655 -7.214,0 -13.383,19.0235 -15.188,0 0,-19.0235 -6.019,0 0,53.5545 23.383,0 c 11.429,0 18.73,-7.726 18.73,-17.304 0,-8.243 -6.32,-15.137 -14.289,-16.926 l 13.98,-19.3245" /><path
         id="path20"
         style="fill:#ffffff;fill-opacity:1;fill-rule:nonzero;stroke:none"
         d="m 238.777,85.7539 c 4.211,0 8.879,0.5234 14.743,2.7031 l 0,-5.7031 c 0,0 -5.645,-2.2383 -14.813,-2.2383 -15.492,0 -28.055,12.5117 -28.055,27.8634 0,15.344 12.563,27.851 28.055,27.851 9.168,0 14.813,-2.238 14.813,-2.238 l 0,-5.691 c -5.864,2.168 -10.532,2.695 -14.743,2.695 -12.101,0 -22.105,-10.637 -22.105,-22.617 0,-11.9845 10.004,-22.6251 22.105,-22.6251" /><path
         id="path22"
         style="fill:#ffffff;fill-opacity:1;fill-rule:nonzero;stroke:none"
         d="m 302.676,85.6836 c 11.804,0 21.957,10.0312 21.957,22.6954 0,12.578 -10.153,22.617 -21.957,22.617 -12.254,0 -22.031,-10.039 -22.031,-22.617 0,-12.6642 9.777,-22.6954 22.031,-22.6954 z m 8.344,-14.7461 -7.665,0 -2.183,9.5781 c -14.82,0.7539 -26.543,12.8828 -26.543,27.8634 0,15.344 12.555,27.851 28.047,27.851 15.414,0 27.972,-12.507 27.972,-27.851 0,-14.2306 -10.675,-25.9884 -24.441,-27.7149 l 4.813,-9.7266" /><path
         id="path24"
         style="fill:#ffffff;fill-opacity:1;fill-rule:nonzero;stroke:none"
         d="m 350.941,99.5391 27.8984,0 0,5.23438 -27.8984,0 0,-5.23438 z" /><path
         id="path26"
         style="fill:#ffffff;fill-opacity:1;fill-rule:nonzero;stroke:none"
         d="m 406.703,129.871 0,-17.976 28.879,0 0,-5.247 -28.879,0 0,-19.8433 31.578,0 0,-5.2422 -37.593,0 0,53.5545 37.593,0 0,-5.246 -31.578,0" /><path
         id="path28"
         style="fill:#ffffff;fill-opacity:1;fill-rule:nonzero;stroke:none"
         d="m 463.148,81.5625 0,53.5545 5.266,0 35.348,-43.8162 0,43.8162 6.011,0 0,-53.5545 -5.265,0 -35.344,43.4375 0,-43.4375 -6.016,0" /><path
         id="path30"
         style="fill:#ffffff;fill-opacity:1;fill-rule:nonzero;stroke:none"
         d="m 532.398,99.5391 27.8945,0 0,5.23438 -27.8945,0 0,-5.23438 z" /><path
         id="path32"
         style="fill:#ffffff;fill-opacity:1;fill-rule:nonzero;stroke:none"
         d="m 588.082,107.031 0,-20.2263 16.613,0 c 6.696,0 12.711,4.4258 12.711,10.1211 0,5.5352 -5.261,10.1052 -12.031,10.1052 l -17.293,0 z m 0,22.84 0,-17.605 16.535,0 c 7.528,0 11.285,3.972 11.285,8.836 0,4.796 -3.757,8.769 -11.285,8.769 l -16.535,0 z m 35.34,-33.8476 c 0,-9.2187 -8.949,-14.4609 -20.301,-14.4609 l -21.055,0 0,53.5545 22.551,0 c 10.008,0 17.301,-6.222 17.301,-13.105 0,-6.223 -3.836,-10.789 -9.023,-12.364 6.386,-1.718 10.527,-7.636 10.527,-13.6246" /><path
         id="path34"
         style="fill:#ffffff;fill-opacity:1;fill-rule:nonzero;stroke:none"
         d="m 652.191,99.5391 25.27,0 -12.633,29.2889 -12.637,-29.2889 z m -1.8,-5.2422 -5.563,-12.7344 -6.316,0 23.308,53.5545 6.016,0 23.316,-53.5545 -6.316,0 -5.566,12.7344 -28.879,0" /><path
         id="path36"
         style="fill:#ffffff;fill-opacity:1;fill-rule:nonzero;stroke:none"
         d="m 734.672,105.828 c 6.769,0 12.18,5.246 12.18,11.985 0,6.66 -5.11,12.058 -13.305,12.058 l -16.774,0 0,-24.043 17.899,0 z m 17.902,-24.2655 -7.219,0 -13.39,19.0235 -15.192,0 0,-19.0235 -6.015,0 0,53.5545 23.387,0 c 11.437,0 18.722,-7.726 18.722,-17.304 0,-8.243 -6.308,-15.137 -14.289,-16.926 l 13.996,-19.3245" /><path
         id="path38"
         style="fill:#ffffff;fill-opacity:1;fill-rule:nonzero;stroke:none"
         d="m 801.273,85.6836 c 11.809,0 21.954,10.0312 21.954,22.6954 0,12.578 -10.145,22.617 -21.954,22.617 -12.265,0 -22.031,-10.039 -22.031,-22.617 0,-12.6642 9.766,-22.6954 22.031,-22.6954 z m 27.969,44.1874 0,-17.976 28.879,0 0,-5.247 -28.879,0 0,-19.8433 31.582,0 0,-5.2422 -37.597,0 0,10.7109 c -4.657,-7.9375 -13.075,-11.8359 -21.954,-11.8359 -15.496,0 -28.046,12.5117 -28.046,27.9415 0,15.344 12.55,27.851 28.046,27.851 8.879,0 16.387,-3.671 21.954,-11.984 l 0,10.871 37.597,0 0,-5.246 -31.582,0" /><path
         id="path40"
         style="fill:#ffffff;fill-opacity:1;fill-rule:nonzero;stroke:none"
         d="m 932.133,135.117 0,-30.488 c 0,-14.8321 -10.977,-24.1915 -24.356,-24.1915 -13.543,0 -24.375,9.3594 -24.375,24.1915 l 0,30.488 6.016,0 0,-31.008 c 0,-10.1832 8.047,-18.4254 18.359,-18.4254 10.227,0 18.34,8.2422 18.34,18.4254 l 0,31.008 6.016,0" /><path
         id="path42"
         style="fill:#ffffff;fill-opacity:1;fill-rule:nonzero;stroke:none"
         d="m 957.008,81.5625 0,53.5545 6.015,0 0,-48.3123 29.102,0 0,-5.2422 -35.117,0" /><path
         id="path44"
         style="fill:#ffffff;fill-opacity:1;fill-rule:nonzero;stroke:none"
         d="m 636.898,454.867 c -0.843,0 -1.777,-0.176 -2.761,-0.523 -3.778,-1.34 -5.93,-3.321 -6.547,-6.024 -0.945,-4.086 0.551,-13.89 19.738,-34.84 1.617,22.032 -1.808,34.606 -5.883,39.137 -1.367,1.524 -2.851,2.25 -4.547,2.25 m -374.91,0.524 c 31.332,-37.032 66.778,-43.493 87.629,-43.493 l 0.012,0 c 8.988,0.012 18.351,1.106 27.851,3.247 4.825,1.085 9.782,2.05 14.793,2.871 -4.933,17.867 -20.554,27.664 -44.39,27.664 -5.512,0 -11.457,-0.539 -17.672,-1.594 -7.531,-1.285 -14.82,-1.922 -21.656,-1.922 -20.465,0 -35.434,5.695 -46.567,13.227 m 264.258,-45.043 c 38.93,-9.75 77.406,-25.598 111.84,-46.075 4.016,14.043 6.824,27.52 8.375,40.141 -19.598,20.336 -27.953,35.219 -25.566,45.457 1.183,5.078 4.847,8.746 10.918,10.91 5.613,2.02 10.898,0.703 14.765,-3.605 7.07,-7.879 9.613,-26.176 7.07,-50.324 11.977,-12.161 24.844,-23.028 30.965,-28.043 13.367,37.527 4.836,102.574 4.746,103.242 -0.164,1.25 0.368,2.488 1.399,3.23 4.18,3.035 8.828,6.668 11.871,9.305 -17.863,3.672 -33.625,5.473 -48.098,5.473 -64.535,0 -91.191,-37.496 -124.929,-84.965 -1.122,-1.578 -2.231,-3.16 -3.356,-4.746 m 41.016,-72.981 c 20.289,-0.668 39.98,-3.422 58.613,-8.195 3.852,9.398 7.27,18.902 10.188,28.316 -35.004,21.028 -74.344,37.192 -114.11,46.867 -7.652,-10.683 -16.008,-22.011 -25.453,-33.589 29.555,-1.149 55.656,-13.422 70.762,-33.399 m -85.922,26.11 c -35.598,-3.547 -69.723,-25.157 -74.192,-67.832 15.043,12 29.809,24.488 43.957,37.187 10.481,9.391 20.418,19.473 30.235,30.645 m 151.211,-36.133 c 49.301,-14.141 83.344,-40.641 104.152,-61.93 -22.367,33 -54.871,63.508 -94.601,88.371 -2.778,-8.801 -5.981,-17.668 -9.551,-26.441 M 406.664,286.508 c -0.094,-18.317 4.883,-38.633 14.844,-60.715 -2.117,18.758 0.711,39.867 11.75,58.637 14.262,24.226 47.367,53.097 124.14,53.097 l 0.825,0 c -15.032,16.688 -39.246,26.481 -66.313,26.481 -0.347,0 -0.711,0 -1.055,-0.008 -11.406,-13.418 -22.91,-25.277 -35.14,-36.25 -15.75,-14.137 -32.235,-28.008 -49.051,-41.242 m 165.27,43.808 c 11.234,-19.488 18.832,-54.902 -14.961,-109.105 33.207,35.516 53.894,73.113 66.207,101.562 -16.36,4.125 -33.539,6.661 -51.246,7.543 m -171.551,81.989 c 2.308,-18.75 -4.278,-42.262 -19.153,-68.293 -32.175,-56.293 -71.722,-105.086 -102.136,-135.008 26.035,14.543 70.375,41.434 120.761,80.879 0.922,24.582 10.805,45.238 28.625,59.828 15.583,12.762 36.524,20.207 59.102,21.066 10.148,12.11 19.027,24.02 27.137,35.262 -39.739,8.879 -78.989,11.039 -114.336,6.266 m 34.73,-222.735 c -1.16,0 -2.285,0.575 -2.933,1.653 -20.285,33.14 -31.11,63.375 -32.293,89.992 -78.571,-60.832 -141.629,-91 -142.258,-91.313 -1.59,-0.754 -3.481,-0.183 -4.406,1.278 -0.922,1.476 -0.586,3.41 0.765,4.496 30.543,24.324 81.52,82.172 121.262,151.715 14.102,24.675 20.395,46.679 18.328,63.898 -4.941,-0.812 -9.828,-1.762 -14.578,-2.824 -10,-2.266 -19.867,-3.41 -29.371,-3.41 -27.774,0 -79.859,10.664 -116.699,82.039 -0.817,1.578 -0.278,3.519 1.246,4.465 1.512,0.937 3.496,0.574 4.562,-0.86 0.93,-1.222 1.922,-2.633 3.008,-4.191 9.891,-14.02 26.442,-37.496 66.809,-37.496 6.441,0 13.343,0.601 20.508,1.832 6.585,1.105 12.933,1.683 18.82,1.683 27.246,0 45.73,-12.152 51.238,-33.496 12.633,1.739 25.84,2.61 39.313,2.61 26.054,0 53.164,-3.219 80.609,-9.555 1.664,2.336 3.32,4.66 4.941,6.945 34.899,49.094 62.457,87.879 130.547,87.879 16.028,0 33.532,-2.125 53.512,-6.476 2.543,0.129 3.738,-1.305 4.176,-2.653 0.679,-2.078 1.398,-4.246 -15.778,-16.836 1.469,-12.191 7.934,-73.898 -7.16,-109.105 -0.418,-0.977 -1.277,-1.707 -2.316,-1.973 -1.031,-0.262 -2.129,-0.027 -2.977,0.637 -0.175,0.133 -15.879,12.5 -31.429,27.738 -1.743,-11.957 -4.567,-24.594 -8.379,-37.672 55.285,-34.242 97.152,-79.265 118.109,-127.054 0.371,-0.547 0.578,-1.211 0.578,-1.907 0,-1.89 -1.523,-3.425 -3.437,-3.425 -1.184,0 -2.403,0.605 -3.047,1.746 -0.391,0.668 -38.387,66.093 -126.496,91.047 -15.524,-36.176 -44.461,-87.254 -95.231,-130.586 -1.343,-1.153 -3.355,-1.086 -4.636,0.156 -1.282,1.23 -1.387,3.223 -0.278,4.598 59.203,72.816 47.278,115.71 33.91,135.464 -1.636,0.036 -3.269,0.059 -4.918,0.071 l -1.336,0 c -73.519,0 -104.855,-27.028 -118.199,-49.707 -17.312,-29.414 -12.859,-64.957 -1.347,-85.817 0.472,-0.586 0.761,-1.34 0.761,-2.168 0,-1.902 -1.496,-3.41 -3.5,-3.418" /><path
         id="path46"
         style="fill:#ffffff;fill-opacity:1;fill-rule:nonzero;stroke:none"
         d="m 255.66,28.0977 0,-15.2539 c 0,-7.4063 -5.488,-12.089894 -12.183,-12.089894 -6.766,0 -12.184,4.683594 -12.184,12.089894 l 0,15.2539 3.008,0 0,-15.5079 c 0,-5.10152 4.023,-9.21089 9.176,-9.21089 5.117,0 9.175,4.10937 9.175,9.21089 l 0,15.5079 3.008,0" /><path
         id="path48"
         style="fill:#ffffff;stroke:#ffffff;stroke-width:1.5;stroke-linecap:butt;stroke-linejoin:miter;stroke-miterlimit:10;stroke-dasharray:none;stroke-opacity:1"
         d="m 255.66,28.0977 0,-15.2539 c 0,-7.4063 -5.488,-12.089894 -12.183,-12.089894 -6.766,0 -12.184,4.683594 -12.184,12.089894 l 0,15.2539 3.008,0 0,-15.5079 c 0,-5.10152 4.023,-9.21089 9.176,-9.21089 5.117,0 9.175,4.10937 9.175,9.21089 l 0,15.5079 3.008,0 z" /><path
         id="path50"
         style="fill:#ffffff;fill-opacity:1;fill-rule:nonzero;stroke:none"
         d="m 277.125,1.31641 0,26.78129 2.633,0 17.676,-21.90629 0,21.90629 3.004,0 0,-26.78129 -2.633,0 -17.672,21.71089 0,-21.71089 -3.008,0" /><path
         id="path52"
         style="fill:#ffffff;stroke:#ffffff;stroke-width:1.5;stroke-linecap:butt;stroke-linejoin:miter;stroke-miterlimit:10;stroke-dasharray:none;stroke-opacity:1"
         d="m 277.125,1.31641 0,26.78129 2.633,0 17.676,-21.90629 0,21.90629 3.004,0 0,-26.78129 -2.633,0 -17.672,21.71089 0,-21.71089 -3.008,0 z" /><path
         id="path54"
         style="fill:#ffffff;fill-opacity:1;fill-rule:nonzero;stroke:none"
         d="m 349.824,10.3047 12.633,0 -6.32,14.6367 -6.313,-14.6367 z m -0.902,-2.62892 -2.785,-6.35937 -3.153,0 11.649,26.78129 3.012,0 11.656,-26.78129 -3.156,0 -2.786,6.35937 -14.437,0" /><path
         id="path56"
         style="fill:#ffffff;stroke:#ffffff;stroke-width:1.5;stroke-linecap:butt;stroke-linejoin:miter;stroke-miterlimit:10;stroke-dasharray:none;stroke-opacity:1"
         d="m 349.824,10.3047 12.633,0 -6.32,14.6367 -6.313,-14.6367 z m -0.902,-2.62892 -2.785,-6.35937 -3.153,0 11.649,26.78129 3.012,0 11.656,-26.78129 -3.156,0 -2.786,6.35937 -14.437,0 z" /><path
         id="path58"
         style="fill:#ffffff;fill-opacity:1;fill-rule:nonzero;stroke:none"
         d="m 399.719,13.4453 c 3.383,0 6.086,2.6289 6.086,5.9961 0,3.332 -2.551,6.0274 -6.649,6.0274 l -8.39,0 0,-12.0235 8.953,0 z m 8.949,-12.12889 -3.609,0 -6.7,9.50389 -7.593,0 0,-9.50389 -3.008,0 0,26.78129 11.695,0 c 5.719,0 9.36,-3.8594 9.36,-8.6563 0,-4.1211 -3.153,-7.5664 -7.137,-8.4648 l 6.992,-9.66019" /><path
         id="path60"
         style="fill:#ffffff;stroke:#ffffff;stroke-width:1.5;stroke-linecap:butt;stroke-linejoin:miter;stroke-miterlimit:10;stroke-dasharray:none;stroke-opacity:1"
         d="m 399.719,13.4453 c 3.383,0 6.086,2.6289 6.086,5.9961 0,3.332 -2.551,6.0274 -6.649,6.0274 l -8.39,0 0,-12.0235 8.953,0 z m 8.949,-12.12889 -3.609,0 -6.7,9.50389 -7.593,0 0,-9.50389 -3.008,0 0,26.78129 11.695,0 c 5.719,0 9.36,-3.8594 9.36,-8.6563 0,-4.1211 -3.153,-7.5664 -7.137,-8.4648 l 6.992,-9.66019 z" /><path
         id="path62"
         style="fill:#ffffff;fill-opacity:1;fill-rule:nonzero;stroke:none"
         d="m 447.953,25.4688 -9.398,0 0,-24.15239 -3.008,0 0,24.15239 -9.399,0 0,2.6289 21.805,0 0,-2.6289" /><path
         id="path64"
         style="fill:#ffffff;stroke:#ffffff;stroke-width:1.5;stroke-linecap:butt;stroke-linejoin:miter;stroke-miterlimit:10;stroke-dasharray:none;stroke-opacity:1"
         d="m 447.953,25.4688 -9.398,0 0,-24.15239 -3.008,0 0,24.15239 -9.399,0 0,2.6289 21.805,0 0,-2.6289 z" /><path
         id="path66"
         style="fill:#ffffff;fill-opacity:1;fill-rule:nonzero;stroke:none"
         d="m 500.645,3.93359 c 6.132,0 10.531,5.12891 10.531,10.74611 0,5.625 -4.399,10.7891 -10.531,10.7891 l -5.641,0 0,-21.53521 5.641,0 z m 13.539,10.74611 c 0,-7.40626 -5.34,-13.36329 -13.5,-13.36329 l -8.688,0 0,26.78129 8.688,0 c 8.16,0 13.5,-6 13.5,-13.418" /><path
         id="path68"
         style="fill:#ffffff;stroke:#ffffff;stroke-width:1.5;stroke-linecap:butt;stroke-linejoin:miter;stroke-miterlimit:10;stroke-dasharray:none;stroke-opacity:1"
         d="m 500.645,3.93359 c 6.132,0 10.531,5.12891 10.531,10.74611 0,5.625 -4.399,10.7891 -10.531,10.7891 l -5.641,0 0,-21.53521 5.641,0 z m 13.539,10.74611 c 0,-7.40626 -5.34,-13.36329 -13.5,-13.36329 l -8.688,0 0,26.78129 8.688,0 c 8.16,0 13.5,-6 13.5,-13.418 z" /><path
         id="path70"
         style="fill:#ffffff;fill-opacity:1;fill-rule:nonzero;stroke:none"
         d="m 537.523,25.4688 0,-8.9844 14.442,0 0,-2.6289 -14.442,0 0,-9.92191 15.797,0 0,-2.61718 -18.804,0 0,26.78129 18.804,0 0,-2.6289 -15.797,0" /><path
         id="path72"
         style="fill:#ffffff;stroke:#ffffff;stroke-width:1.5;stroke-linecap:butt;stroke-linejoin:miter;stroke-miterlimit:10;stroke-dasharray:none;stroke-opacity:1"
         d="m 537.523,25.4688 0,-8.9844 14.442,0 0,-2.6289 -14.442,0 0,-9.92191 15.797,0 0,-2.61718 -18.804,0 0,26.78129 18.804,0 0,-2.6289 -15.797,0 z" /><path
         id="path74"
         style="fill:#ffffff;fill-opacity:1;fill-rule:nonzero;stroke:none"
         d="m 616.352,28.0977 3.195,0 -11.09,-26.78129 -3.008,0 -11.097,26.78129 3.164,0 9.437,-23.63286 9.399,23.63286" /><path
         id="path76"
         style="fill:#ffffff;stroke:#ffffff;stroke-width:1.5;stroke-linecap:butt;stroke-linejoin:miter;stroke-miterlimit:10;stroke-dasharray:none;stroke-opacity:1"
         d="m 616.352,28.0977 3.195,0 -11.09,-26.78129 -3.008,0 -11.097,26.78129 3.164,0 9.437,-23.63286 9.399,23.63286 z" /><path
         id="path78"
         style="fill:#ffffff;fill-opacity:1;fill-rule:nonzero;stroke:none"
         d="m 639.133,1.31641 3.00781,0 0,26.7813 -3.00781,0 0,-26.7813 z" /><path
         id="path80"
         style="fill:#ffffff;stroke:#ffffff;stroke-width:1.5;stroke-linecap:butt;stroke-linejoin:miter;stroke-miterlimit:10;stroke-dasharray:none;stroke-opacity:1"
         d="m 639.133,1.31641 3.00781,0 0,26.7813 -3.00781,0 0,-26.7813 z" /><path
         id="path82"
         style="fill:#ffffff;fill-opacity:1;fill-rule:nonzero;stroke:none"
         d="m 683.707,28.0977 3.191,0 -11.085,-26.78129 -3.008,0 -11.09,26.78129 3.152,0 9.442,-23.63286 9.398,23.63286" /><path
         id="path84"
         style="fill:#ffffff;stroke:#ffffff;stroke-width:1.5;stroke-linecap:butt;stroke-linejoin:miter;stroke-miterlimit:10;stroke-dasharray:none;stroke-opacity:1"
         d="m 683.707,28.0977 3.191,0 -11.085,-26.78129 -3.008,0 -11.09,26.78129 3.152,0 9.442,-23.63286 9.398,23.63286 z" /><path
         id="path86"
         style="fill:#ffffff;fill-opacity:1;fill-rule:nonzero;stroke:none"
         d="m 717.313,13.4453 c 3.386,0 6.089,2.6289 6.089,5.9961 0,3.332 -2.55,6.0274 -6.648,6.0274 l -8.391,0 0,-12.0235 8.95,0 z m 8.953,-12.12889 -3.61,0 -6.695,9.50389 -7.598,0 0,-9.50389 -3.008,0 0,26.78129 11.7,0 c 5.715,0 9.355,-3.8594 9.355,-8.6563 0,-4.1211 -3.152,-7.5664 -7.14,-8.4648 l 6.996,-9.66019" /><path
         id="path88"
         style="fill:#ffffff;stroke:#ffffff;stroke-width:1.5;stroke-linecap:butt;stroke-linejoin:miter;stroke-miterlimit:10;stroke-dasharray:none;stroke-opacity:1"
         d="m 717.313,13.4453 c 3.386,0 6.089,2.6289 6.089,5.9961 0,3.332 -2.55,6.0274 -6.648,6.0274 l -8.391,0 0,-12.0235 8.95,0 z m 8.953,-12.12889 -3.61,0 -6.695,9.50389 -7.598,0 0,-9.50389 -3.008,0 0,26.78129 11.7,0 c 5.715,0 9.355,-3.8594 9.355,-8.6563 0,-4.1211 -3.152,-7.5664 -7.14,-8.4648 l 6.996,-9.66019 z" /><path
         id="path90"
         style="fill:#ffffff;fill-opacity:1;fill-rule:nonzero;stroke:none"
         d="m 749,25.4688 0,-8.9844 14.441,0 0,-2.6289 -14.441,0 0,-9.92191 15.789,0 0,-2.61718 -18.797,0 0,26.78129 18.797,0 0,-2.6289 -15.789,0" /><path
         id="path92"
         style="fill:#ffffff;stroke:#ffffff;stroke-width:1.5;stroke-linecap:butt;stroke-linejoin:miter;stroke-miterlimit:10;stroke-dasharray:none;stroke-opacity:1"
         d="m 749,25.4688 0,-8.9844 14.441,0 0,-2.6289 -14.441,0 0,-9.92191 15.789,0 0,-2.61718 -18.797,0 0,26.78129 18.797,0 0,-2.6289 -15.789,0 z" /></g></g></svg>