<svg width="804" height="1236" viewBox="0 0 804 1236" fill="none" xmlns="http://www.w3.org/2000/svg">
<rect width="804" height="1236" fill="#E5E5E5"/>
<g id="Tabloid - 1">
<rect x="3" y="3" width="798" height="1230" fill="#DEECD9"/>
<rect x="3" y="3" width="798" height="1230" fill="url(#paint0_linear)"/>
<rect x="3" y="3" width="798" height="1230" fill="url(#paint1_linear)" fill-opacity="0.2"/>
<rect x="3" y="3" width="798" height="1230" stroke="#D0D0D0" stroke-width="6"/>
</g>
<g id="floors">
<g id="-1" opacity="0.3">
<path d="M394.62 491.657C398.862 489.144 404.138 489.144 408.38 491.657L681.41 653.385C690.237 658.613 690.237 671.387 681.41 676.615L408.38 838.343C404.138 840.856 398.862 840.856 394.62 838.343L121.59 676.615C112.763 671.387 112.763 658.613 121.59 653.385L394.62 491.657Z" fill="#53E759"/>
<path d="M394.62 491.657C398.862 489.144 404.138 489.144 408.38 491.657L681.41 653.385C690.237 658.613 690.237 671.387 681.41 676.615L408.38 838.343C404.138 840.856 398.862 840.856 394.62 838.343L121.59 676.615C112.763 671.387 112.763 658.613 121.59 653.385L394.62 491.657Z" fill="url(#paint2_linear)" fill-opacity="0.5"/>
<path d="M394.62 491.657C398.862 489.144 404.138 489.144 408.38 491.657L681.41 653.385C690.237 658.613 690.237 671.387 681.41 676.615L408.38 838.343C404.138 840.856 398.862 840.856 394.62 838.343L121.59 676.615C112.763 671.387 112.763 658.613 121.59 653.385L394.62 491.657Z" fill="url(#paint3_linear)" fill-opacity="0.5"/>
<path d="M394.62 491.657C398.862 489.144 404.138 489.144 408.38 491.657L681.41 653.385C690.237 658.613 690.237 671.387 681.41 676.615L408.38 838.343C404.138 840.856 398.862 840.856 394.62 838.343L121.59 676.615C112.763 671.387 112.763 658.613 121.59 653.385L394.62 491.657Z" stroke="black"/>
</g>
<g id="0" opacity="0.3">
<path d="M394.62 410.657C398.862 408.144 404.138 408.144 408.38 410.657L681.41 572.385C690.237 577.613 690.237 590.387 681.41 595.615L408.38 757.343C404.138 759.856 398.862 759.856 394.62 757.343L121.59 595.615C112.763 590.387 112.763 577.613 121.59 572.385L394.62 410.657Z" fill="#53E759"/>
<path d="M394.62 410.657C398.862 408.144 404.138 408.144 408.38 410.657L681.41 572.385C690.237 577.613 690.237 590.387 681.41 595.615L408.38 757.343C404.138 759.856 398.862 759.856 394.62 757.343L121.59 595.615C112.763 590.387 112.763 577.613 121.59 572.385L394.62 410.657Z" fill="url(#paint4_linear)" fill-opacity="0.5"/>
<path d="M394.62 410.657C398.862 408.144 404.138 408.144 408.38 410.657L681.41 572.385C690.237 577.613 690.237 590.387 681.41 595.615L408.38 757.343C404.138 759.856 398.862 759.856 394.62 757.343L121.59 595.615C112.763 590.387 112.763 577.613 121.59 572.385L394.62 410.657Z" fill="url(#paint5_linear)" fill-opacity="0.5"/>
<path d="M394.62 410.657C398.862 408.144 404.138 408.144 408.38 410.657L681.41 572.385C690.237 577.613 690.237 590.387 681.41 595.615L408.38 757.343C404.138 759.856 398.862 759.856 394.62 757.343L121.59 595.615C112.763 590.387 112.763 577.613 121.59 572.385L394.62 410.657Z" stroke="black"/>
</g>
<g id="1">
<path d="M394.62 333.657C398.862 331.144 404.138 331.144 408.38 333.657L681.41 495.385C690.237 500.613 690.237 513.387 681.41 518.615L408.38 680.343C404.138 682.856 398.862 682.856 394.62 680.343L121.59 518.615C112.763 513.387 112.763 500.613 121.59 495.385L394.62 333.657Z" fill="#53E759"/>
<path d="M394.62 333.657C398.862 331.144 404.138 331.144 408.38 333.657L681.41 495.385C690.237 500.613 690.237 513.387 681.41 518.615L408.38 680.343C404.138 682.856 398.862 682.856 394.62 680.343L121.59 518.615C112.763 513.387 112.763 500.613 121.59 495.385L394.62 333.657Z" fill="url(#paint6_linear)" fill-opacity="0.5"/>
<path d="M394.62 333.657C398.862 331.144 404.138 331.144 408.38 333.657L681.41 495.385C690.237 500.613 690.237 513.387 681.41 518.615L408.38 680.343C404.138 682.856 398.862 682.856 394.62 680.343L121.59 518.615C112.763 513.387 112.763 500.613 121.59 495.385L394.62 333.657Z" fill="url(#paint7_linear)" fill-opacity="0.5"/>
<path d="M394.62 333.657C398.862 331.144 404.138 331.144 408.38 333.657L681.41 495.385C690.237 500.613 690.237 513.387 681.41 518.615L408.38 680.343C404.138 682.856 398.862 682.856 394.62 680.343L121.59 518.615C112.763 513.387 112.763 500.613 121.59 495.385L394.62 333.657Z" stroke="black"/>
</g>
<ellipse id="Ellipse 1" cx="284.5" cy="584" rx="9.5" ry="7" fill="#001AFF"/>
<path id="Vector 1" d="M289 580L348.721 540.839C349.324 540.443 349.323 539.559 348.719 539.165L260.071 481.372C259.726 481.148 259.28 481.157 258.945 481.395L230 502" stroke="#2400FF" stroke-width="3"/>
<g id="2" opacity="0.3">
<path d="M394.62 261.657C398.862 259.144 404.138 259.144 408.38 261.657L681.41 423.385C690.237 428.613 690.237 441.387 681.41 446.615L408.38 608.343C404.138 610.856 398.862 610.856 394.62 608.343L121.59 446.615C112.763 441.387 112.763 428.613 121.59 423.385L394.62 261.657Z" fill="#53E759"/>
<path d="M394.62 261.657C398.862 259.144 404.138 259.144 408.38 261.657L681.41 423.385C690.237 428.613 690.237 441.387 681.41 446.615L408.38 608.343C404.138 610.856 398.862 610.856 394.62 608.343L121.59 446.615C112.763 441.387 112.763 428.613 121.59 423.385L394.62 261.657Z" fill="url(#paint8_linear)" fill-opacity="0.5"/>
<path d="M394.62 261.657C398.862 259.144 404.138 259.144 408.38 261.657L681.41 423.385C690.237 428.613 690.237 441.387 681.41 446.615L408.38 608.343C404.138 610.856 398.862 610.856 394.62 608.343L121.59 446.615C112.763 441.387 112.763 428.613 121.59 423.385L394.62 261.657Z" fill="url(#paint9_linear)" fill-opacity="0.5"/>
<path d="M394.62 261.657C398.862 259.144 404.138 259.144 408.38 261.657L681.41 423.385C690.237 428.613 690.237 441.387 681.41 446.615L408.38 608.343C404.138 610.856 398.862 610.856 394.62 608.343L121.59 446.615C112.763 441.387 112.763 428.613 121.59 423.385L394.62 261.657Z" stroke="black"/>
</g>
<g id="3" opacity="0.3">
<path d="M394.62 185.657C398.862 183.144 404.138 183.144 408.38 185.657L681.41 347.385C690.237 352.613 690.237 365.387 681.41 370.615L408.38 532.343C404.138 534.856 398.862 534.856 394.62 532.343L121.59 370.615C112.763 365.387 112.763 352.613 121.59 347.385L394.62 185.657Z" fill="#53E759"/>
<path d="M394.62 185.657C398.862 183.144 404.138 183.144 408.38 185.657L681.41 347.385C690.237 352.613 690.237 365.387 681.41 370.615L408.38 532.343C404.138 534.856 398.862 534.856 394.62 532.343L121.59 370.615C112.763 365.387 112.763 352.613 121.59 347.385L394.62 185.657Z" fill="url(#paint10_linear)" fill-opacity="0.5"/>
<path d="M394.62 185.657C398.862 183.144 404.138 183.144 408.38 185.657L681.41 347.385C690.237 352.613 690.237 365.387 681.41 370.615L408.38 532.343C404.138 534.856 398.862 534.856 394.62 532.343L121.59 370.615C112.763 365.387 112.763 352.613 121.59 347.385L394.62 185.657Z" fill="url(#paint11_linear)" fill-opacity="0.5"/>
<path d="M394.62 185.657C398.862 183.144 404.138 183.144 408.38 185.657L681.41 347.385C690.237 352.613 690.237 365.387 681.41 370.615L408.38 532.343C404.138 534.856 398.862 534.856 394.62 532.343L121.59 370.615C112.763 365.387 112.763 352.613 121.59 347.385L394.62 185.657Z" stroke="black"/>
</g>
<g id="4" opacity="0.3">
<path d="M394.62 101.657C398.862 99.1435 404.138 99.1435 408.38 101.657L681.41 263.385C690.237 268.613 690.237 281.387 681.41 286.615L408.38 448.343C404.138 450.856 398.862 450.856 394.62 448.343L121.59 286.615C112.763 281.387 112.763 268.613 121.59 263.385L394.62 101.657Z" fill="#53E759"/>
<path d="M394.62 101.657C398.862 99.1435 404.138 99.1435 408.38 101.657L681.41 263.385C690.237 268.613 690.237 281.387 681.41 286.615L408.38 448.343C404.138 450.856 398.862 450.856 394.62 448.343L121.59 286.615C112.763 281.387 112.763 268.613 121.59 263.385L394.62 101.657Z" fill="url(#paint12_linear)" fill-opacity="0.5"/>
<path d="M394.62 101.657C398.862 99.1435 404.138 99.1435 408.38 101.657L681.41 263.385C690.237 268.613 690.237 281.387 681.41 286.615L408.38 448.343C404.138 450.856 398.862 450.856 394.62 448.343L121.59 286.615C112.763 281.387 112.763 268.613 121.59 263.385L394.62 101.657Z" fill="url(#paint13_linear)" fill-opacity="0.5"/>
<path d="M394.62 101.657C398.862 99.1435 404.138 99.1435 408.38 101.657L681.41 263.385C690.237 268.613 690.237 281.387 681.41 286.615L408.38 448.343C404.138 450.856 398.862 450.856 394.62 448.343L121.59 286.615C112.763 281.387 112.763 268.613 121.59 263.385L394.62 101.657Z" stroke="black"/>
</g>
</g>
<path id="Polygon 1" d="M246.873 478.061L280.892 499.177C283.728 500.937 283.728 505.063 280.892 506.823L246.873 527.939C245.42 528.841 243.58 528.841 242.127 527.939L208.108 506.823C205.272 505.063 205.272 500.937 208.108 499.177L242.127 478.061C243.58 477.159 245.42 477.159 246.873 478.061Z" fill="#808080" stroke="black"/>
<g id="event">
<g id="time">
<rect id="box" x="66" y="854" width="100" height="100" rx="10" fill="#3260BA"/>
<path id="text" d="M93.5781 912H91.6934V905.428H84.5254V912H82.6504V897.781H84.5254V903.895H91.6934V897.781H93.5781V912ZM107.836 912H105.951V905.428H98.7832V912H96.9082V897.781H98.7832V903.895H105.951V897.781H107.836V912ZM110.824 911.053C110.824 910.74 110.915 910.48 111.098 910.272C111.286 910.063 111.566 909.959 111.938 909.959C112.309 909.959 112.589 910.063 112.777 910.272C112.973 910.48 113.07 910.74 113.07 911.053C113.07 911.352 112.973 911.603 112.777 911.805C112.589 912.007 112.309 912.107 111.938 912.107C111.566 912.107 111.286 912.007 111.098 911.805C110.915 911.603 110.824 911.352 110.824 911.053ZM110.834 902.43C110.834 902.117 110.925 901.857 111.107 901.648C111.296 901.44 111.576 901.336 111.947 901.336C112.318 901.336 112.598 901.44 112.787 901.648C112.982 901.857 113.08 902.117 113.08 902.43C113.08 902.729 112.982 902.98 112.787 903.182C112.598 903.384 112.318 903.484 111.947 903.484C111.576 903.484 111.296 903.384 111.107 903.182C110.925 902.98 110.834 902.729 110.834 902.43ZM118.432 897.781L123.08 909.383L127.729 897.781H130.16V912H128.285V906.463L128.461 900.486L123.793 912H122.357L117.699 900.516L117.885 906.463V912H116.01V897.781H118.432ZM135.893 897.781L140.541 909.383L145.189 897.781H147.621V912H145.746V906.463L145.922 900.486L141.254 912H139.818L135.16 900.516L135.346 906.463V912H133.471V897.781H135.893Z" fill="black"/>
</g>
<g id="name">
<rect id="box_2" x="178" y="854" width="422" height="100" rx="10" fill="#8FB5FF"/>
<path id="text_2" d="M302.338 910H300.453L293.295 899.043V910H291.41V895.781H293.295L300.473 906.787V895.781H302.338V910ZM304.906 904.619C304.906 903.584 305.108 902.653 305.512 901.826C305.922 900.999 306.488 900.361 307.211 899.912C307.94 899.463 308.77 899.238 309.701 899.238C311.14 899.238 312.302 899.736 313.188 900.732C314.079 901.729 314.525 903.053 314.525 904.707V904.834C314.525 905.863 314.327 906.787 313.93 907.607C313.539 908.421 312.976 909.056 312.24 909.512C311.511 909.968 310.671 910.195 309.721 910.195C308.288 910.195 307.126 909.697 306.234 908.701C305.349 907.705 304.906 906.387 304.906 904.746V904.619ZM306.723 904.834C306.723 906.006 306.993 906.947 307.533 907.656C308.08 908.366 308.809 908.721 309.721 908.721C310.639 908.721 311.368 908.363 311.908 907.647C312.449 906.924 312.719 905.915 312.719 904.619C312.719 903.46 312.442 902.523 311.889 901.807C311.342 901.084 310.613 900.723 309.701 900.723C308.809 900.723 308.09 901.078 307.543 901.787C306.996 902.497 306.723 903.512 306.723 904.834ZM318.49 899.434L318.539 900.606C319.314 899.694 320.359 899.238 321.674 899.238C323.152 899.238 324.158 899.805 324.691 900.938C325.043 900.43 325.499 900.02 326.059 899.707C326.625 899.395 327.292 899.238 328.061 899.238C330.378 899.238 331.557 900.466 331.596 902.92V910H329.789V903.027C329.789 902.272 329.617 901.709 329.271 901.338C328.926 900.96 328.347 900.772 327.533 900.772C326.863 900.772 326.306 900.973 325.863 901.377C325.421 901.774 325.163 902.311 325.092 902.988V910H323.275V903.076C323.275 901.54 322.523 900.772 321.02 900.772C319.835 900.772 319.024 901.276 318.588 902.285V910H316.781V899.434H318.49ZM338.852 904.629C338.852 903.008 339.236 901.706 340.004 900.723C340.772 899.733 341.778 899.238 343.021 899.238C344.258 899.238 345.238 899.662 345.961 900.508V895H347.768V910H346.107L346.02 908.867C345.297 909.753 344.291 910.195 343.002 910.195C341.778 910.195 340.779 909.694 340.004 908.691C339.236 907.689 338.852 906.38 338.852 904.766V904.629ZM340.658 904.834C340.658 906.032 340.906 906.969 341.4 907.647C341.895 908.324 342.579 908.662 343.451 908.662C344.597 908.662 345.434 908.148 345.961 907.119V902.266C345.421 901.27 344.59 900.772 343.471 900.772C342.585 900.772 341.895 901.113 341.4 901.797C340.906 902.481 340.658 903.493 340.658 904.834ZM354.965 910.195C353.533 910.195 352.367 909.727 351.469 908.789C350.57 907.845 350.121 906.585 350.121 905.01V904.678C350.121 903.63 350.32 902.695 350.717 901.875C351.12 901.048 351.68 900.404 352.396 899.941C353.119 899.473 353.9 899.238 354.74 899.238C356.114 899.238 357.182 899.691 357.943 900.596C358.705 901.501 359.086 902.796 359.086 904.482V905.234H351.928C351.954 906.276 352.257 907.119 352.836 907.764C353.422 908.402 354.164 908.721 355.062 908.721C355.701 908.721 356.241 908.591 356.684 908.33C357.126 908.07 357.514 907.725 357.846 907.295L358.949 908.154C358.064 909.515 356.736 910.195 354.965 910.195ZM354.74 900.723C354.011 900.723 353.399 900.99 352.904 901.523C352.41 902.051 352.104 902.793 351.986 903.75H357.279V903.613C357.227 902.695 356.98 901.986 356.537 901.484C356.094 900.977 355.495 900.723 354.74 900.723ZM368.109 910H366.303V895H368.109V910ZM371.137 899.785L370.111 899.082C370.717 898.236 371.029 897.344 371.049 896.406V895H372.836V896.27C372.829 896.921 372.667 897.572 372.348 898.223C372.035 898.867 371.632 899.388 371.137 899.785ZM378.812 910.195C377.38 910.195 376.215 909.727 375.316 908.789C374.418 907.845 373.969 906.585 373.969 905.01V904.678C373.969 903.63 374.167 902.695 374.564 901.875C374.968 901.048 375.528 900.404 376.244 899.941C376.967 899.473 377.748 899.238 378.588 899.238C379.962 899.238 381.029 899.691 381.791 900.596C382.553 901.501 382.934 902.796 382.934 904.482V905.234H375.775C375.801 906.276 376.104 907.119 376.684 907.764C377.27 908.402 378.012 908.721 378.91 908.721C379.548 908.721 380.089 908.591 380.531 908.33C380.974 908.07 381.361 907.725 381.693 907.295L382.797 908.154C381.911 909.515 380.583 910.195 378.812 910.195ZM378.588 900.723C377.859 900.723 377.247 900.99 376.752 901.523C376.257 902.051 375.951 902.793 375.834 903.75H381.127V903.613C381.075 902.695 380.827 901.986 380.385 901.484C379.942 900.977 379.343 900.723 378.588 900.723ZM379.467 895H381.654L379.037 897.871H377.582L379.467 895ZM388.383 907.549L391 899.434H392.846L389.057 910H387.68L383.852 899.434H385.697L388.383 907.549ZM398.832 910.195C397.4 910.195 396.234 909.727 395.336 908.789C394.438 907.845 393.988 906.585 393.988 905.01V904.678C393.988 903.63 394.187 902.695 394.584 901.875C394.988 901.048 395.548 900.404 396.264 899.941C396.986 899.473 397.768 899.238 398.607 899.238C399.981 899.238 401.049 899.691 401.811 900.596C402.572 901.501 402.953 902.796 402.953 904.482V905.234H395.795C395.821 906.276 396.124 907.119 396.703 907.764C397.289 908.402 398.031 908.721 398.93 908.721C399.568 908.721 400.108 908.591 400.551 908.33C400.993 908.07 401.381 907.725 401.713 907.295L402.816 908.154C401.931 909.515 400.603 910.195 398.832 910.195ZM398.607 900.723C397.878 900.723 397.266 900.99 396.771 901.523C396.277 902.051 395.971 902.793 395.854 903.75H401.146V903.613C401.094 902.695 400.847 901.986 400.404 901.484C399.962 900.977 399.363 900.723 398.607 900.723ZM406.762 899.434L406.82 900.762C407.628 899.746 408.682 899.238 409.984 899.238C412.217 899.238 413.344 900.498 413.363 903.018V910H411.557V903.008C411.55 902.246 411.374 901.683 411.029 901.318C410.691 900.954 410.16 900.772 409.438 900.772C408.852 900.772 408.337 900.928 407.895 901.24C407.452 901.553 407.107 901.963 406.859 902.471V910H405.053V899.434H406.762ZM420.473 910.195C419.04 910.195 417.875 909.727 416.977 908.789C416.078 907.845 415.629 906.585 415.629 905.01V904.678C415.629 903.63 415.827 902.695 416.225 901.875C416.628 901.048 417.188 900.404 417.904 899.941C418.627 899.473 419.408 899.238 420.248 899.238C421.622 899.238 422.689 899.691 423.451 900.596C424.213 901.501 424.594 902.796 424.594 904.482V905.234H417.436C417.462 906.276 417.764 907.119 418.344 907.764C418.93 908.402 419.672 908.721 420.57 908.721C421.208 908.721 421.749 908.591 422.191 908.33C422.634 908.07 423.021 907.725 423.354 907.295L424.457 908.154C423.572 909.515 422.243 910.195 420.473 910.195ZM420.248 900.723C419.519 900.723 418.907 900.99 418.412 901.523C417.917 902.051 417.611 902.793 417.494 903.75H422.787V903.613C422.735 902.695 422.488 901.986 422.045 901.484C421.602 900.977 421.003 900.723 420.248 900.723ZM428.393 899.434L428.441 900.606C429.216 899.694 430.261 899.238 431.576 899.238C433.054 899.238 434.06 899.805 434.594 900.938C434.945 900.43 435.401 900.02 435.961 899.707C436.527 899.395 437.195 899.238 437.963 899.238C440.281 899.238 441.459 900.466 441.498 902.92V910H439.691V903.027C439.691 902.272 439.519 901.709 439.174 901.338C438.829 900.96 438.249 900.772 437.436 900.772C436.765 900.772 436.208 900.973 435.766 901.377C435.323 901.774 435.066 902.311 434.994 902.988V910H433.178V903.076C433.178 901.54 432.426 900.772 430.922 900.772C429.737 900.772 428.926 901.276 428.49 902.285V910H426.684V899.434H428.393ZM448.617 910.195C447.185 910.195 446.02 909.727 445.121 908.789C444.223 907.845 443.773 906.585 443.773 905.01V904.678C443.773 903.63 443.972 902.695 444.369 901.875C444.773 901.048 445.333 900.404 446.049 899.941C446.771 899.473 447.553 899.238 448.393 899.238C449.766 899.238 450.834 899.691 451.596 900.596C452.357 901.501 452.738 902.796 452.738 904.482V905.234H445.58C445.606 906.276 445.909 907.119 446.488 907.764C447.074 908.402 447.816 908.721 448.715 908.721C449.353 908.721 449.893 908.591 450.336 908.33C450.779 908.07 451.166 907.725 451.498 907.295L452.602 908.154C451.716 909.515 450.388 910.195 448.617 910.195ZM448.393 900.723C447.663 900.723 447.051 900.99 446.557 901.523C446.062 902.051 445.756 902.793 445.639 903.75H450.932V903.613C450.88 902.695 450.632 901.986 450.189 901.484C449.747 900.977 449.148 900.723 448.393 900.723ZM456.547 899.434L456.605 900.762C457.413 899.746 458.467 899.238 459.77 899.238C462.003 899.238 463.129 900.498 463.148 903.018V910H461.342V903.008C461.335 902.246 461.16 901.683 460.814 901.318C460.476 900.954 459.945 900.772 459.223 900.772C458.637 900.772 458.122 900.928 457.68 901.24C457.237 901.553 456.892 901.963 456.645 902.471V910H454.838V899.434H456.547ZM468.324 896.875V899.434H470.297V900.83H468.324V907.383C468.324 907.806 468.412 908.125 468.588 908.34C468.764 908.548 469.063 908.652 469.486 908.652C469.695 908.652 469.981 908.613 470.346 908.535V910C469.87 910.13 469.408 910.195 468.959 910.195C468.152 910.195 467.543 909.951 467.133 909.463C466.723 908.975 466.518 908.281 466.518 907.383V900.83H464.594V899.434H466.518V896.875H468.324ZM483.129 910H481.312V897.959L477.67 899.297V897.656L482.846 895.713H483.129V910Z" fill="black"/>
</g>
<g id="room">
<rect id="room_2" x="612" y="854" width="150" height="100" rx="10" fill="#3260BA"/>
<path id="text_3" d="M657.369 892.662C655.761 892.2 654.589 891.633 653.854 890.963C653.124 890.286 652.76 889.452 652.76 888.463C652.76 887.343 653.206 886.419 654.098 885.689C654.996 884.954 656.161 884.586 657.594 884.586C658.57 884.586 659.439 884.775 660.201 885.152C660.969 885.53 661.562 886.051 661.979 886.715C662.402 887.379 662.613 888.105 662.613 888.893H660.729C660.729 888.033 660.455 887.359 659.908 886.871C659.361 886.376 658.59 886.129 657.594 886.129C656.669 886.129 655.947 886.334 655.426 886.744C654.911 887.148 654.654 887.711 654.654 888.434C654.654 889.013 654.898 889.505 655.387 889.908C655.882 890.305 656.718 890.67 657.896 891.002C659.081 891.334 660.006 891.702 660.67 892.105C661.34 892.503 661.835 892.968 662.154 893.502C662.48 894.036 662.643 894.664 662.643 895.387C662.643 896.539 662.193 897.464 661.295 898.16C660.396 898.85 659.195 899.195 657.691 899.195C656.715 899.195 655.803 899.01 654.957 898.639C654.111 898.261 653.456 897.747 652.994 897.096C652.538 896.445 652.311 895.706 652.311 894.879H654.195C654.195 895.738 654.511 896.419 655.143 896.92C655.781 897.415 656.63 897.662 657.691 897.662C658.681 897.662 659.439 897.46 659.967 897.057C660.494 896.653 660.758 896.103 660.758 895.406C660.758 894.71 660.514 894.173 660.025 893.795C659.537 893.411 658.652 893.033 657.369 892.662ZM671.295 899C671.191 898.792 671.106 898.421 671.041 897.887C670.201 898.759 669.199 899.195 668.033 899.195C666.992 899.195 666.135 898.902 665.465 898.316C664.801 897.724 664.469 896.975 664.469 896.07C664.469 894.97 664.885 894.117 665.719 893.512C666.559 892.9 667.737 892.594 669.254 892.594H671.012V891.764C671.012 891.132 670.823 890.631 670.445 890.26C670.068 889.882 669.511 889.693 668.775 889.693C668.131 889.693 667.59 889.856 667.154 890.182C666.718 890.507 666.5 890.901 666.5 891.363H664.684C664.684 890.836 664.869 890.328 665.24 889.84C665.618 889.345 666.126 888.954 666.764 888.668C667.408 888.382 668.115 888.238 668.883 888.238C670.1 888.238 671.054 888.544 671.744 889.156C672.434 889.762 672.792 890.598 672.818 891.666V896.529C672.818 897.499 672.942 898.271 673.189 898.844V899H671.295ZM668.297 897.623C668.863 897.623 669.4 897.477 669.908 897.184C670.416 896.891 670.784 896.51 671.012 896.041V893.873H669.596C667.382 893.873 666.275 894.521 666.275 895.816C666.275 896.383 666.464 896.826 666.842 897.145C667.219 897.464 667.704 897.623 668.297 897.623ZM677.613 899H675.807V884H677.613V899ZM682.477 899H680.67V884H682.477V899ZM689.762 899.195C688.329 899.195 687.164 898.727 686.266 897.789C685.367 896.845 684.918 895.585 684.918 894.01V893.678C684.918 892.63 685.117 891.695 685.514 890.875C685.917 890.048 686.477 889.404 687.193 888.941C687.916 888.473 688.697 888.238 689.537 888.238C690.911 888.238 691.979 888.691 692.74 889.596C693.502 890.501 693.883 891.796 693.883 893.482V894.234H686.725C686.751 895.276 687.053 896.119 687.633 896.764C688.219 897.402 688.961 897.721 689.859 897.721C690.497 897.721 691.038 897.59 691.48 897.33C691.923 897.07 692.311 896.725 692.643 896.295L693.746 897.154C692.861 898.515 691.533 899.195 689.762 899.195ZM689.537 889.723C688.808 889.723 688.196 889.99 687.701 890.523C687.206 891.051 686.9 891.793 686.783 892.75H692.076V892.613C692.024 891.695 691.777 890.986 691.334 890.484C690.891 889.977 690.292 889.723 689.537 889.723ZM700.504 893.629C700.504 892.008 700.888 890.706 701.656 889.723C702.424 888.733 703.43 888.238 704.674 888.238C705.911 888.238 706.891 888.661 707.613 889.508V884H709.42V899H707.76L707.672 897.867C706.949 898.753 705.943 899.195 704.654 899.195C703.43 899.195 702.431 898.694 701.656 897.691C700.888 896.689 700.504 895.38 700.504 893.766V893.629ZM702.311 893.834C702.311 895.032 702.558 895.969 703.053 896.646C703.548 897.324 704.231 897.662 705.104 897.662C706.249 897.662 707.086 897.148 707.613 896.119V891.266C707.073 890.27 706.243 889.771 705.123 889.771C704.238 889.771 703.548 890.113 703.053 890.797C702.558 891.48 702.311 892.493 702.311 893.834ZM716.617 899.195C715.185 899.195 714.02 898.727 713.121 897.789C712.223 896.845 711.773 895.585 711.773 894.01V893.678C711.773 892.63 711.972 891.695 712.369 890.875C712.773 890.048 713.333 889.404 714.049 888.941C714.771 888.473 715.553 888.238 716.393 888.238C717.766 888.238 718.834 888.691 719.596 889.596C720.357 890.501 720.738 891.796 720.738 893.482V894.234H713.58C713.606 895.276 713.909 896.119 714.488 896.764C715.074 897.402 715.816 897.721 716.715 897.721C717.353 897.721 717.893 897.59 718.336 897.33C718.779 897.07 719.166 896.725 719.498 896.295L720.602 897.154C719.716 898.515 718.388 899.195 716.617 899.195ZM716.393 889.723C715.663 889.723 715.051 889.99 714.557 890.523C714.062 891.051 713.756 891.793 713.639 892.75H718.932V892.613C718.88 891.695 718.632 890.986 718.189 890.484C717.747 889.977 717.148 889.723 716.393 889.723ZM659.693 913.055C659.42 913.009 659.124 912.986 658.805 912.986C657.62 912.986 656.816 913.491 656.393 914.5V922H654.586V911.434H656.344L656.373 912.654C656.965 911.71 657.805 911.238 658.893 911.238C659.244 911.238 659.511 911.284 659.693 911.375V913.055ZM665.553 922.195C664.12 922.195 662.955 921.727 662.057 920.789C661.158 919.845 660.709 918.585 660.709 917.01V916.678C660.709 915.63 660.908 914.695 661.305 913.875C661.708 913.048 662.268 912.404 662.984 911.941C663.707 911.473 664.488 911.238 665.328 911.238C666.702 911.238 667.77 911.691 668.531 912.596C669.293 913.501 669.674 914.796 669.674 916.482V917.234H662.516C662.542 918.276 662.844 919.119 663.424 919.764C664.01 920.402 664.752 920.721 665.65 920.721C666.288 920.721 666.829 920.59 667.271 920.33C667.714 920.07 668.102 919.725 668.434 919.295L669.537 920.154C668.652 921.515 667.324 922.195 665.553 922.195ZM665.328 912.723C664.599 912.723 663.987 912.99 663.492 913.523C662.997 914.051 662.691 914.793 662.574 915.75H667.867V915.613C667.815 914.695 667.568 913.986 667.125 913.484C666.682 912.977 666.083 912.723 665.328 912.723ZM666.207 907H668.395L665.777 909.871H664.322L666.207 907ZM678.297 920.955C677.594 921.782 676.562 922.195 675.201 922.195C674.075 922.195 673.215 921.87 672.623 921.219C672.037 920.561 671.741 919.591 671.734 918.309V911.434H673.541V918.26C673.541 919.861 674.192 920.662 675.494 920.662C676.874 920.662 677.792 920.148 678.248 919.119V911.434H680.055V922H678.336L678.297 920.955ZM684.518 911.434L684.576 912.762C685.383 911.746 686.438 911.238 687.74 911.238C689.973 911.238 691.1 912.498 691.119 915.018V922H689.312V915.008C689.306 914.246 689.13 913.683 688.785 913.318C688.447 912.954 687.916 912.771 687.193 912.771C686.607 912.771 686.093 912.928 685.65 913.24C685.208 913.553 684.863 913.963 684.615 914.471V922H682.809V911.434H684.518ZM695.807 922H694V911.434H695.807V922ZM693.854 908.631C693.854 908.338 693.941 908.09 694.117 907.889C694.299 907.687 694.566 907.586 694.918 907.586C695.27 907.586 695.536 907.687 695.719 907.889C695.901 908.09 695.992 908.338 695.992 908.631C695.992 908.924 695.901 909.168 695.719 909.363C695.536 909.559 695.27 909.656 694.918 909.656C694.566 909.656 694.299 909.559 694.117 909.363C693.941 909.168 693.854 908.924 693.854 908.631ZM698.229 916.619C698.229 915.584 698.43 914.653 698.834 913.826C699.244 912.999 699.811 912.361 700.533 911.912C701.262 911.463 702.092 911.238 703.023 911.238C704.462 911.238 705.624 911.736 706.51 912.732C707.402 913.729 707.848 915.053 707.848 916.707V916.834C707.848 917.863 707.649 918.787 707.252 919.607C706.861 920.421 706.298 921.056 705.562 921.512C704.833 921.967 703.993 922.195 703.043 922.195C701.611 922.195 700.449 921.697 699.557 920.701C698.671 919.705 698.229 918.387 698.229 916.746V916.619ZM700.045 916.834C700.045 918.006 700.315 918.947 700.855 919.656C701.402 920.366 702.132 920.721 703.043 920.721C703.961 920.721 704.69 920.363 705.23 919.646C705.771 918.924 706.041 917.915 706.041 916.619C706.041 915.46 705.764 914.523 705.211 913.807C704.664 913.084 703.935 912.723 703.023 912.723C702.132 912.723 701.412 913.077 700.865 913.787C700.318 914.497 700.045 915.512 700.045 916.834ZM711.822 911.434L711.881 912.762C712.688 911.746 713.743 911.238 715.045 911.238C717.278 911.238 718.404 912.498 718.424 915.018V922H716.617V915.008C716.611 914.246 716.435 913.683 716.09 913.318C715.751 912.954 715.221 912.771 714.498 912.771C713.912 912.771 713.398 912.928 712.955 913.24C712.512 913.553 712.167 913.963 711.92 914.471V922H710.113V911.434H711.822Z" fill="black"/>
</g>
</g>
<g id="event_2">
<g id="time_2">
<rect id="box_3" x="66" y="969" width="100" height="100" rx="10" fill="#3260BA"/>
<path id="text_4" d="M93.5781 1027H91.6934V1020.43H84.5254V1027H82.6504V1012.78H84.5254V1018.89H91.6934V1012.78H93.5781V1027ZM107.836 1027H105.951V1020.43H98.7832V1027H96.9082V1012.78H98.7832V1018.89H105.951V1012.78H107.836V1027ZM110.824 1026.05C110.824 1025.74 110.915 1025.48 111.098 1025.27C111.286 1025.06 111.566 1024.96 111.938 1024.96C112.309 1024.96 112.589 1025.06 112.777 1025.27C112.973 1025.48 113.07 1025.74 113.07 1026.05C113.07 1026.35 112.973 1026.6 112.777 1026.8C112.589 1027.01 112.309 1027.11 111.938 1027.11C111.566 1027.11 111.286 1027.01 111.098 1026.8C110.915 1026.6 110.824 1026.35 110.824 1026.05ZM110.834 1017.43C110.834 1017.12 110.925 1016.86 111.107 1016.65C111.296 1016.44 111.576 1016.34 111.947 1016.34C112.318 1016.34 112.598 1016.44 112.787 1016.65C112.982 1016.86 113.08 1017.12 113.08 1017.43C113.08 1017.73 112.982 1017.98 112.787 1018.18C112.598 1018.38 112.318 1018.48 111.947 1018.48C111.576 1018.48 111.296 1018.38 111.107 1018.18C110.925 1017.98 110.834 1017.73 110.834 1017.43ZM118.432 1012.78L123.08 1024.38L127.729 1012.78H130.16V1027H128.285V1021.46L128.461 1015.49L123.793 1027H122.357L117.699 1015.52L117.885 1021.46V1027H116.01V1012.78H118.432ZM135.893 1012.78L140.541 1024.38L145.189 1012.78H147.621V1027H145.746V1021.46L145.922 1015.49L141.254 1027H139.818L135.16 1015.52L135.346 1021.46V1027H133.471V1012.78H135.893Z" fill="black"/>
</g>
<g id="name_2">
<rect id="box_4" x="178" y="969" width="422" height="100" rx="10" fill="#8FB5FF"/>
<path id="text_5" d="M302.338 1025H300.453L293.295 1014.04V1025H291.41V1010.78H293.295L300.473 1021.79V1010.78H302.338V1025ZM304.906 1019.62C304.906 1018.58 305.108 1017.65 305.512 1016.83C305.922 1016 306.488 1015.36 307.211 1014.91C307.94 1014.46 308.77 1014.24 309.701 1014.24C311.14 1014.24 312.302 1014.74 313.188 1015.73C314.079 1016.73 314.525 1018.05 314.525 1019.71V1019.83C314.525 1020.86 314.327 1021.79 313.93 1022.61C313.539 1023.42 312.976 1024.06 312.24 1024.51C311.511 1024.97 310.671 1025.2 309.721 1025.2C308.288 1025.2 307.126 1024.7 306.234 1023.7C305.349 1022.71 304.906 1021.39 304.906 1019.75V1019.62ZM306.723 1019.83C306.723 1021.01 306.993 1021.95 307.533 1022.66C308.08 1023.37 308.809 1023.72 309.721 1023.72C310.639 1023.72 311.368 1023.36 311.908 1022.65C312.449 1021.92 312.719 1020.91 312.719 1019.62C312.719 1018.46 312.442 1017.52 311.889 1016.81C311.342 1016.08 310.613 1015.72 309.701 1015.72C308.809 1015.72 308.09 1016.08 307.543 1016.79C306.996 1017.5 306.723 1018.51 306.723 1019.83ZM318.49 1014.43L318.539 1015.61C319.314 1014.69 320.359 1014.24 321.674 1014.24C323.152 1014.24 324.158 1014.8 324.691 1015.94C325.043 1015.43 325.499 1015.02 326.059 1014.71C326.625 1014.39 327.292 1014.24 328.061 1014.24C330.378 1014.24 331.557 1015.47 331.596 1017.92V1025H329.789V1018.03C329.789 1017.27 329.617 1016.71 329.271 1016.34C328.926 1015.96 328.347 1015.77 327.533 1015.77C326.863 1015.77 326.306 1015.97 325.863 1016.38C325.421 1016.77 325.163 1017.31 325.092 1017.99V1025H323.275V1018.08C323.275 1016.54 322.523 1015.77 321.02 1015.77C319.835 1015.77 319.024 1016.28 318.588 1017.29V1025H316.781V1014.43H318.49ZM338.852 1019.63C338.852 1018.01 339.236 1016.71 340.004 1015.72C340.772 1014.73 341.778 1014.24 343.021 1014.24C344.258 1014.24 345.238 1014.66 345.961 1015.51V1010H347.768V1025H346.107L346.02 1023.87C345.297 1024.75 344.291 1025.2 343.002 1025.2C341.778 1025.2 340.779 1024.69 340.004 1023.69C339.236 1022.69 338.852 1021.38 338.852 1019.77V1019.63ZM340.658 1019.83C340.658 1021.03 340.906 1021.97 341.4 1022.65C341.895 1023.32 342.579 1023.66 343.451 1023.66C344.597 1023.66 345.434 1023.15 345.961 1022.12V1017.27C345.421 1016.27 344.59 1015.77 343.471 1015.77C342.585 1015.77 341.895 1016.11 341.4 1016.8C340.906 1017.48 340.658 1018.49 340.658 1019.83ZM354.965 1025.2C353.533 1025.2 352.367 1024.73 351.469 1023.79C350.57 1022.85 350.121 1021.59 350.121 1020.01V1019.68C350.121 1018.63 350.32 1017.7 350.717 1016.88C351.12 1016.05 351.68 1015.4 352.396 1014.94C353.119 1014.47 353.9 1014.24 354.74 1014.24C356.114 1014.24 357.182 1014.69 357.943 1015.6C358.705 1016.5 359.086 1017.8 359.086 1019.48V1020.23H351.928C351.954 1021.28 352.257 1022.12 352.836 1022.76C353.422 1023.4 354.164 1023.72 355.062 1023.72C355.701 1023.72 356.241 1023.59 356.684 1023.33C357.126 1023.07 357.514 1022.72 357.846 1022.29L358.949 1023.15C358.064 1024.52 356.736 1025.2 354.965 1025.2ZM354.74 1015.72C354.011 1015.72 353.399 1015.99 352.904 1016.52C352.41 1017.05 352.104 1017.79 351.986 1018.75H357.279V1018.61C357.227 1017.7 356.98 1016.99 356.537 1016.48C356.094 1015.98 355.495 1015.72 354.74 1015.72ZM368.109 1025H366.303V1010H368.109V1025ZM371.137 1014.79L370.111 1014.08C370.717 1013.24 371.029 1012.34 371.049 1011.41V1010H372.836V1011.27C372.829 1011.92 372.667 1012.57 372.348 1013.22C372.035 1013.87 371.632 1014.39 371.137 1014.79ZM378.812 1025.2C377.38 1025.2 376.215 1024.73 375.316 1023.79C374.418 1022.85 373.969 1021.59 373.969 1020.01V1019.68C373.969 1018.63 374.167 1017.7 374.564 1016.88C374.968 1016.05 375.528 1015.4 376.244 1014.94C376.967 1014.47 377.748 1014.24 378.588 1014.24C379.962 1014.24 381.029 1014.69 381.791 1015.6C382.553 1016.5 382.934 1017.8 382.934 1019.48V1020.23H375.775C375.801 1021.28 376.104 1022.12 376.684 1022.76C377.27 1023.4 378.012 1023.72 378.91 1023.72C379.548 1023.72 380.089 1023.59 380.531 1023.33C380.974 1023.07 381.361 1022.72 381.693 1022.29L382.797 1023.15C381.911 1024.52 380.583 1025.2 378.812 1025.2ZM378.588 1015.72C377.859 1015.72 377.247 1015.99 376.752 1016.52C376.257 1017.05 375.951 1017.79 375.834 1018.75H381.127V1018.61C381.075 1017.7 380.827 1016.99 380.385 1016.48C379.942 1015.98 379.343 1015.72 378.588 1015.72ZM379.467 1010H381.654L379.037 1012.87H377.582L379.467 1010ZM388.383 1022.55L391 1014.43H392.846L389.057 1025H387.68L383.852 1014.43H385.697L388.383 1022.55ZM398.832 1025.2C397.4 1025.2 396.234 1024.73 395.336 1023.79C394.438 1022.85 393.988 1021.59 393.988 1020.01V1019.68C393.988 1018.63 394.187 1017.7 394.584 1016.88C394.988 1016.05 395.548 1015.4 396.264 1014.94C396.986 1014.47 397.768 1014.24 398.607 1014.24C399.981 1014.24 401.049 1014.69 401.811 1015.6C402.572 1016.5 402.953 1017.8 402.953 1019.48V1020.23H395.795C395.821 1021.28 396.124 1022.12 396.703 1022.76C397.289 1023.4 398.031 1023.72 398.93 1023.72C399.568 1023.72 400.108 1023.59 400.551 1023.33C400.993 1023.07 401.381 1022.72 401.713 1022.29L402.816 1023.15C401.931 1024.52 400.603 1025.2 398.832 1025.2ZM398.607 1015.72C397.878 1015.72 397.266 1015.99 396.771 1016.52C396.277 1017.05 395.971 1017.79 395.854 1018.75H401.146V1018.61C401.094 1017.7 400.847 1016.99 400.404 1016.48C399.962 1015.98 399.363 1015.72 398.607 1015.72ZM406.762 1014.43L406.82 1015.76C407.628 1014.75 408.682 1014.24 409.984 1014.24C412.217 1014.24 413.344 1015.5 413.363 1018.02V1025H411.557V1018.01C411.55 1017.25 411.374 1016.68 411.029 1016.32C410.691 1015.95 410.16 1015.77 409.438 1015.77C408.852 1015.77 408.337 1015.93 407.895 1016.24C407.452 1016.55 407.107 1016.96 406.859 1017.47V1025H405.053V1014.43H406.762ZM420.473 1025.2C419.04 1025.2 417.875 1024.73 416.977 1023.79C416.078 1022.85 415.629 1021.59 415.629 1020.01V1019.68C415.629 1018.63 415.827 1017.7 416.225 1016.88C416.628 1016.05 417.188 1015.4 417.904 1014.94C418.627 1014.47 419.408 1014.24 420.248 1014.24C421.622 1014.24 422.689 1014.69 423.451 1015.6C424.213 1016.5 424.594 1017.8 424.594 1019.48V1020.23H417.436C417.462 1021.28 417.764 1022.12 418.344 1022.76C418.93 1023.4 419.672 1023.72 420.57 1023.72C421.208 1023.72 421.749 1023.59 422.191 1023.33C422.634 1023.07 423.021 1022.72 423.354 1022.29L424.457 1023.15C423.572 1024.52 422.243 1025.2 420.473 1025.2ZM420.248 1015.72C419.519 1015.72 418.907 1015.99 418.412 1016.52C417.917 1017.05 417.611 1017.79 417.494 1018.75H422.787V1018.61C422.735 1017.7 422.488 1016.99 422.045 1016.48C421.602 1015.98 421.003 1015.72 420.248 1015.72ZM428.393 1014.43L428.441 1015.61C429.216 1014.69 430.261 1014.24 431.576 1014.24C433.054 1014.24 434.06 1014.8 434.594 1015.94C434.945 1015.43 435.401 1015.02 435.961 1014.71C436.527 1014.39 437.195 1014.24 437.963 1014.24C440.281 1014.24 441.459 1015.47 441.498 1017.92V1025H439.691V1018.03C439.691 1017.27 439.519 1016.71 439.174 1016.34C438.829 1015.96 438.249 1015.77 437.436 1015.77C436.765 1015.77 436.208 1015.97 435.766 1016.38C435.323 1016.77 435.066 1017.31 434.994 1017.99V1025H433.178V1018.08C433.178 1016.54 432.426 1015.77 430.922 1015.77C429.737 1015.77 428.926 1016.28 428.49 1017.29V1025H426.684V1014.43H428.393ZM448.617 1025.2C447.185 1025.2 446.02 1024.73 445.121 1023.79C444.223 1022.85 443.773 1021.59 443.773 1020.01V1019.68C443.773 1018.63 443.972 1017.7 444.369 1016.88C444.773 1016.05 445.333 1015.4 446.049 1014.94C446.771 1014.47 447.553 1014.24 448.393 1014.24C449.766 1014.24 450.834 1014.69 451.596 1015.6C452.357 1016.5 452.738 1017.8 452.738 1019.48V1020.23H445.58C445.606 1021.28 445.909 1022.12 446.488 1022.76C447.074 1023.4 447.816 1023.72 448.715 1023.72C449.353 1023.72 449.893 1023.59 450.336 1023.33C450.779 1023.07 451.166 1022.72 451.498 1022.29L452.602 1023.15C451.716 1024.52 450.388 1025.2 448.617 1025.2ZM448.393 1015.72C447.663 1015.72 447.051 1015.99 446.557 1016.52C446.062 1017.05 445.756 1017.79 445.639 1018.75H450.932V1018.61C450.88 1017.7 450.632 1016.99 450.189 1016.48C449.747 1015.98 449.148 1015.72 448.393 1015.72ZM456.547 1014.43L456.605 1015.76C457.413 1014.75 458.467 1014.24 459.77 1014.24C462.003 1014.24 463.129 1015.5 463.148 1018.02V1025H461.342V1018.01C461.335 1017.25 461.16 1016.68 460.814 1016.32C460.476 1015.95 459.945 1015.77 459.223 1015.77C458.637 1015.77 458.122 1015.93 457.68 1016.24C457.237 1016.55 456.892 1016.96 456.645 1017.47V1025H454.838V1014.43H456.547ZM468.324 1011.88V1014.43H470.297V1015.83H468.324V1022.38C468.324 1022.81 468.412 1023.13 468.588 1023.34C468.764 1023.55 469.063 1023.65 469.486 1023.65C469.695 1023.65 469.981 1023.61 470.346 1023.54V1025C469.87 1025.13 469.408 1025.2 468.959 1025.2C468.152 1025.2 467.543 1024.95 467.133 1024.46C466.723 1023.97 466.518 1023.28 466.518 1022.38V1015.83H464.594V1014.43H466.518V1011.88H468.324ZM486.508 1025H477.191V1023.7L482.113 1018.23C482.842 1017.41 483.344 1016.74 483.617 1016.22C483.897 1015.7 484.037 1015.16 484.037 1014.61C484.037 1013.87 483.812 1013.26 483.363 1012.78C482.914 1012.31 482.315 1012.07 481.566 1012.07C480.668 1012.07 479.968 1012.33 479.467 1012.84C478.972 1013.35 478.725 1014.06 478.725 1014.97H476.918C476.918 1013.66 477.338 1012.6 478.178 1011.8C479.024 1010.99 480.154 1010.59 481.566 1010.59C482.888 1010.59 483.933 1010.93 484.701 1011.63C485.469 1012.32 485.854 1013.24 485.854 1014.39C485.854 1015.79 484.962 1017.46 483.178 1019.39L479.369 1023.53H486.508V1025Z" fill="black"/>
</g>
<g id="room_3">
<rect id="room_4" x="612" y="969" width="150" height="100" rx="10" fill="#3260BA"/>
<path id="text_6" d="M657.369 1007.66C655.761 1007.2 654.589 1006.63 653.854 1005.96C653.124 1005.29 652.76 1004.45 652.76 1003.46C652.76 1002.34 653.206 1001.42 654.098 1000.69C654.996 999.954 656.161 999.586 657.594 999.586C658.57 999.586 659.439 999.775 660.201 1000.15C660.969 1000.53 661.562 1001.05 661.979 1001.71C662.402 1002.38 662.613 1003.1 662.613 1003.89H660.729C660.729 1003.03 660.455 1002.36 659.908 1001.87C659.361 1001.38 658.59 1001.13 657.594 1001.13C656.669 1001.13 655.947 1001.33 655.426 1001.74C654.911 1002.15 654.654 1002.71 654.654 1003.43C654.654 1004.01 654.898 1004.5 655.387 1004.91C655.882 1005.31 656.718 1005.67 657.896 1006C659.081 1006.33 660.006 1006.7 660.67 1007.11C661.34 1007.5 661.835 1007.97 662.154 1008.5C662.48 1009.04 662.643 1009.66 662.643 1010.39C662.643 1011.54 662.193 1012.46 661.295 1013.16C660.396 1013.85 659.195 1014.2 657.691 1014.2C656.715 1014.2 655.803 1014.01 654.957 1013.64C654.111 1013.26 653.456 1012.75 652.994 1012.1C652.538 1011.44 652.311 1010.71 652.311 1009.88H654.195C654.195 1010.74 654.511 1011.42 655.143 1011.92C655.781 1012.41 656.63 1012.66 657.691 1012.66C658.681 1012.66 659.439 1012.46 659.967 1012.06C660.494 1011.65 660.758 1011.1 660.758 1010.41C660.758 1009.71 660.514 1009.17 660.025 1008.79C659.537 1008.41 658.652 1008.03 657.369 1007.66ZM671.295 1014C671.191 1013.79 671.106 1013.42 671.041 1012.89C670.201 1013.76 669.199 1014.2 668.033 1014.2C666.992 1014.2 666.135 1013.9 665.465 1013.32C664.801 1012.72 664.469 1011.98 664.469 1011.07C664.469 1009.97 664.885 1009.12 665.719 1008.51C666.559 1007.9 667.737 1007.59 669.254 1007.59H671.012V1006.76C671.012 1006.13 670.823 1005.63 670.445 1005.26C670.068 1004.88 669.511 1004.69 668.775 1004.69C668.131 1004.69 667.59 1004.86 667.154 1005.18C666.718 1005.51 666.5 1005.9 666.5 1006.36H664.684C664.684 1005.84 664.869 1005.33 665.24 1004.84C665.618 1004.35 666.126 1003.95 666.764 1003.67C667.408 1003.38 668.115 1003.24 668.883 1003.24C670.1 1003.24 671.054 1003.54 671.744 1004.16C672.434 1004.76 672.792 1005.6 672.818 1006.67V1011.53C672.818 1012.5 672.942 1013.27 673.189 1013.84V1014H671.295ZM668.297 1012.62C668.863 1012.62 669.4 1012.48 669.908 1012.18C670.416 1011.89 670.784 1011.51 671.012 1011.04V1008.87H669.596C667.382 1008.87 666.275 1009.52 666.275 1010.82C666.275 1011.38 666.464 1011.83 666.842 1012.14C667.219 1012.46 667.704 1012.62 668.297 1012.62ZM677.613 1014H675.807V999H677.613V1014ZM682.477 1014H680.67V999H682.477V1014ZM689.762 1014.2C688.329 1014.2 687.164 1013.73 686.266 1012.79C685.367 1011.85 684.918 1010.59 684.918 1009.01V1008.68C684.918 1007.63 685.117 1006.7 685.514 1005.88C685.917 1005.05 686.477 1004.4 687.193 1003.94C687.916 1003.47 688.697 1003.24 689.537 1003.24C690.911 1003.24 691.979 1003.69 692.74 1004.6C693.502 1005.5 693.883 1006.8 693.883 1008.48V1009.23H686.725C686.751 1010.28 687.053 1011.12 687.633 1011.76C688.219 1012.4 688.961 1012.72 689.859 1012.72C690.497 1012.72 691.038 1012.59 691.48 1012.33C691.923 1012.07 692.311 1011.72 692.643 1011.29L693.746 1012.15C692.861 1013.51 691.533 1014.2 689.762 1014.2ZM689.537 1004.72C688.808 1004.72 688.196 1004.99 687.701 1005.52C687.206 1006.05 686.9 1006.79 686.783 1007.75H692.076V1007.61C692.024 1006.7 691.777 1005.99 691.334 1005.48C690.891 1004.98 690.292 1004.72 689.537 1004.72ZM700.504 1008.63C700.504 1007.01 700.888 1005.71 701.656 1004.72C702.424 1003.73 703.43 1003.24 704.674 1003.24C705.911 1003.24 706.891 1003.66 707.613 1004.51V999H709.42V1014H707.76L707.672 1012.87C706.949 1013.75 705.943 1014.2 704.654 1014.2C703.43 1014.2 702.431 1013.69 701.656 1012.69C700.888 1011.69 700.504 1010.38 700.504 1008.77V1008.63ZM702.311 1008.83C702.311 1010.03 702.558 1010.97 703.053 1011.65C703.548 1012.32 704.231 1012.66 705.104 1012.66C706.249 1012.66 707.086 1012.15 707.613 1011.12V1006.27C707.073 1005.27 706.243 1004.77 705.123 1004.77C704.238 1004.77 703.548 1005.11 703.053 1005.8C702.558 1006.48 702.311 1007.49 702.311 1008.83ZM716.617 1014.2C715.185 1014.2 714.02 1013.73 713.121 1012.79C712.223 1011.85 711.773 1010.59 711.773 1009.01V1008.68C711.773 1007.63 711.972 1006.7 712.369 1005.88C712.773 1005.05 713.333 1004.4 714.049 1003.94C714.771 1003.47 715.553 1003.24 716.393 1003.24C717.766 1003.24 718.834 1003.69 719.596 1004.6C720.357 1005.5 720.738 1006.8 720.738 1008.48V1009.23H713.58C713.606 1010.28 713.909 1011.12 714.488 1011.76C715.074 1012.4 715.816 1012.72 716.715 1012.72C717.353 1012.72 717.893 1012.59 718.336 1012.33C718.779 1012.07 719.166 1011.72 719.498 1011.29L720.602 1012.15C719.716 1013.51 718.388 1014.2 716.617 1014.2ZM716.393 1004.72C715.663 1004.72 715.051 1004.99 714.557 1005.52C714.062 1006.05 713.756 1006.79 713.639 1007.75H718.932V1007.61C718.88 1006.7 718.632 1005.99 718.189 1005.48C717.747 1004.98 717.148 1004.72 716.393 1004.72ZM659.693 1028.05C659.42 1028.01 659.124 1027.99 658.805 1027.99C657.62 1027.99 656.816 1028.49 656.393 1029.5V1037H654.586V1026.43H656.344L656.373 1027.65C656.965 1026.71 657.805 1026.24 658.893 1026.24C659.244 1026.24 659.511 1026.28 659.693 1026.38V1028.05ZM665.553 1037.2C664.12 1037.2 662.955 1036.73 662.057 1035.79C661.158 1034.85 660.709 1033.59 660.709 1032.01V1031.68C660.709 1030.63 660.908 1029.7 661.305 1028.88C661.708 1028.05 662.268 1027.4 662.984 1026.94C663.707 1026.47 664.488 1026.24 665.328 1026.24C666.702 1026.24 667.77 1026.69 668.531 1027.6C669.293 1028.5 669.674 1029.8 669.674 1031.48V1032.23H662.516C662.542 1033.28 662.844 1034.12 663.424 1034.76C664.01 1035.4 664.752 1035.72 665.65 1035.72C666.288 1035.72 666.829 1035.59 667.271 1035.33C667.714 1035.07 668.102 1034.72 668.434 1034.29L669.537 1035.15C668.652 1036.51 667.324 1037.2 665.553 1037.2ZM665.328 1027.72C664.599 1027.72 663.987 1027.99 663.492 1028.52C662.997 1029.05 662.691 1029.79 662.574 1030.75H667.867V1030.61C667.815 1029.7 667.568 1028.99 667.125 1028.48C666.682 1027.98 666.083 1027.72 665.328 1027.72ZM666.207 1022H668.395L665.777 1024.87H664.322L666.207 1022ZM678.297 1035.96C677.594 1036.78 676.562 1037.2 675.201 1037.2C674.075 1037.2 673.215 1036.87 672.623 1036.22C672.037 1035.56 671.741 1034.59 671.734 1033.31V1026.43H673.541V1033.26C673.541 1034.86 674.192 1035.66 675.494 1035.66C676.874 1035.66 677.792 1035.15 678.248 1034.12V1026.43H680.055V1037H678.336L678.297 1035.96ZM684.518 1026.43L684.576 1027.76C685.383 1026.75 686.438 1026.24 687.74 1026.24C689.973 1026.24 691.1 1027.5 691.119 1030.02V1037H689.312V1030.01C689.306 1029.25 689.13 1028.68 688.785 1028.32C688.447 1027.95 687.916 1027.77 687.193 1027.77C686.607 1027.77 686.093 1027.93 685.65 1028.24C685.208 1028.55 684.863 1028.96 684.615 1029.47V1037H682.809V1026.43H684.518ZM695.807 1037H694V1026.43H695.807V1037ZM693.854 1023.63C693.854 1023.34 693.941 1023.09 694.117 1022.89C694.299 1022.69 694.566 1022.59 694.918 1022.59C695.27 1022.59 695.536 1022.69 695.719 1022.89C695.901 1023.09 695.992 1023.34 695.992 1023.63C695.992 1023.92 695.901 1024.17 695.719 1024.36C695.536 1024.56 695.27 1024.66 694.918 1024.66C694.566 1024.66 694.299 1024.56 694.117 1024.36C693.941 1024.17 693.854 1023.92 693.854 1023.63ZM698.229 1031.62C698.229 1030.58 698.43 1029.65 698.834 1028.83C699.244 1028 699.811 1027.36 700.533 1026.91C701.262 1026.46 702.092 1026.24 703.023 1026.24C704.462 1026.24 705.624 1026.74 706.51 1027.73C707.402 1028.73 707.848 1030.05 707.848 1031.71V1031.83C707.848 1032.86 707.649 1033.79 707.252 1034.61C706.861 1035.42 706.298 1036.06 705.562 1036.51C704.833 1036.97 703.993 1037.2 703.043 1037.2C701.611 1037.2 700.449 1036.7 699.557 1035.7C698.671 1034.71 698.229 1033.39 698.229 1031.75V1031.62ZM700.045 1031.83C700.045 1033.01 700.315 1033.95 700.855 1034.66C701.402 1035.37 702.132 1035.72 703.043 1035.72C703.961 1035.72 704.69 1035.36 705.23 1034.65C705.771 1033.92 706.041 1032.91 706.041 1031.62C706.041 1030.46 705.764 1029.52 705.211 1028.81C704.664 1028.08 703.935 1027.72 703.023 1027.72C702.132 1027.72 701.412 1028.08 700.865 1028.79C700.318 1029.5 700.045 1030.51 700.045 1031.83ZM711.822 1026.43L711.881 1027.76C712.688 1026.75 713.743 1026.24 715.045 1026.24C717.278 1026.24 718.404 1027.5 718.424 1030.02V1037H716.617V1030.01C716.611 1029.25 716.435 1028.68 716.09 1028.32C715.751 1027.95 715.221 1027.77 714.498 1027.77C713.912 1027.77 713.398 1027.93 712.955 1028.24C712.512 1028.55 712.167 1028.96 711.92 1029.47V1037H710.113V1026.43H711.822Z" fill="black"/>
</g>
</g>
<g id="event_3">
<g id="time_3">
<rect id="box_5" x="66" y="1084" width="100" height="100" rx="10" fill="#3260BA"/>
<path id="text_7" d="M93.5781 1142H91.6934V1135.43H84.5254V1142H82.6504V1127.78H84.5254V1133.89H91.6934V1127.78H93.5781V1142ZM107.836 1142H105.951V1135.43H98.7832V1142H96.9082V1127.78H98.7832V1133.89H105.951V1127.78H107.836V1142ZM110.824 1141.05C110.824 1140.74 110.915 1140.48 111.098 1140.27C111.286 1140.06 111.566 1139.96 111.938 1139.96C112.309 1139.96 112.589 1140.06 112.777 1140.27C112.973 1140.48 113.07 1140.74 113.07 1141.05C113.07 1141.35 112.973 1141.6 112.777 1141.8C112.589 1142.01 112.309 1142.11 111.938 1142.11C111.566 1142.11 111.286 1142.01 111.098 1141.8C110.915 1141.6 110.824 1141.35 110.824 1141.05ZM110.834 1132.43C110.834 1132.12 110.925 1131.86 111.107 1131.65C111.296 1131.44 111.576 1131.34 111.947 1131.34C112.318 1131.34 112.598 1131.44 112.787 1131.65C112.982 1131.86 113.08 1132.12 113.08 1132.43C113.08 1132.73 112.982 1132.98 112.787 1133.18C112.598 1133.38 112.318 1133.48 111.947 1133.48C111.576 1133.48 111.296 1133.38 111.107 1133.18C110.925 1132.98 110.834 1132.73 110.834 1132.43ZM118.432 1127.78L123.08 1139.38L127.729 1127.78H130.16V1142H128.285V1136.46L128.461 1130.49L123.793 1142H122.357L117.699 1130.52L117.885 1136.46V1142H116.01V1127.78H118.432ZM135.893 1127.78L140.541 1139.38L145.189 1127.78H147.621V1142H145.746V1136.46L145.922 1130.49L141.254 1142H139.818L135.16 1130.52L135.346 1136.46V1142H133.471V1127.78H135.893Z" fill="black"/>
</g>
<g id="name_3">
<rect id="box_6" x="178" y="1084" width="422" height="100" rx="10" fill="#8FB5FF"/>
<path id="text_8" d="M302.338 1140H300.453L293.295 1129.04V1140H291.41V1125.78H293.295L300.473 1136.79V1125.78H302.338V1140ZM304.906 1134.62C304.906 1133.58 305.108 1132.65 305.512 1131.83C305.922 1131 306.488 1130.36 307.211 1129.91C307.94 1129.46 308.77 1129.24 309.701 1129.24C311.14 1129.24 312.302 1129.74 313.188 1130.73C314.079 1131.73 314.525 1133.05 314.525 1134.71V1134.83C314.525 1135.86 314.327 1136.79 313.93 1137.61C313.539 1138.42 312.976 1139.06 312.24 1139.51C311.511 1139.97 310.671 1140.2 309.721 1140.2C308.288 1140.2 307.126 1139.7 306.234 1138.7C305.349 1137.71 304.906 1136.39 304.906 1134.75V1134.62ZM306.723 1134.83C306.723 1136.01 306.993 1136.95 307.533 1137.66C308.08 1138.37 308.809 1138.72 309.721 1138.72C310.639 1138.72 311.368 1138.36 311.908 1137.65C312.449 1136.92 312.719 1135.91 312.719 1134.62C312.719 1133.46 312.442 1132.52 311.889 1131.81C311.342 1131.08 310.613 1130.72 309.701 1130.72C308.809 1130.72 308.09 1131.08 307.543 1131.79C306.996 1132.5 306.723 1133.51 306.723 1134.83ZM318.49 1129.43L318.539 1130.61C319.314 1129.69 320.359 1129.24 321.674 1129.24C323.152 1129.24 324.158 1129.8 324.691 1130.94C325.043 1130.43 325.499 1130.02 326.059 1129.71C326.625 1129.39 327.292 1129.24 328.061 1129.24C330.378 1129.24 331.557 1130.47 331.596 1132.92V1140H329.789V1133.03C329.789 1132.27 329.617 1131.71 329.271 1131.34C328.926 1130.96 328.347 1130.77 327.533 1130.77C326.863 1130.77 326.306 1130.97 325.863 1131.38C325.421 1131.77 325.163 1132.31 325.092 1132.99V1140H323.275V1133.08C323.275 1131.54 322.523 1130.77 321.02 1130.77C319.835 1130.77 319.024 1131.28 318.588 1132.29V1140H316.781V1129.43H318.49ZM338.852 1134.63C338.852 1133.01 339.236 1131.71 340.004 1130.72C340.772 1129.73 341.778 1129.24 343.021 1129.24C344.258 1129.24 345.238 1129.66 345.961 1130.51V1125H347.768V1140H346.107L346.02 1138.87C345.297 1139.75 344.291 1140.2 343.002 1140.2C341.778 1140.2 340.779 1139.69 340.004 1138.69C339.236 1137.69 338.852 1136.38 338.852 1134.77V1134.63ZM340.658 1134.83C340.658 1136.03 340.906 1136.97 341.4 1137.65C341.895 1138.32 342.579 1138.66 343.451 1138.66C344.597 1138.66 345.434 1138.15 345.961 1137.12V1132.27C345.421 1131.27 344.59 1130.77 343.471 1130.77C342.585 1130.77 341.895 1131.11 341.4 1131.8C340.906 1132.48 340.658 1133.49 340.658 1134.83ZM354.965 1140.2C353.533 1140.2 352.367 1139.73 351.469 1138.79C350.57 1137.85 350.121 1136.59 350.121 1135.01V1134.68C350.121 1133.63 350.32 1132.7 350.717 1131.88C351.12 1131.05 351.68 1130.4 352.396 1129.94C353.119 1129.47 353.9 1129.24 354.74 1129.24C356.114 1129.24 357.182 1129.69 357.943 1130.6C358.705 1131.5 359.086 1132.8 359.086 1134.48V1135.23H351.928C351.954 1136.28 352.257 1137.12 352.836 1137.76C353.422 1138.4 354.164 1138.72 355.062 1138.72C355.701 1138.72 356.241 1138.59 356.684 1138.33C357.126 1138.07 357.514 1137.72 357.846 1137.29L358.949 1138.15C358.064 1139.52 356.736 1140.2 354.965 1140.2ZM354.74 1130.72C354.011 1130.72 353.399 1130.99 352.904 1131.52C352.41 1132.05 352.104 1132.79 351.986 1133.75H357.279V1133.61C357.227 1132.7 356.98 1131.99 356.537 1131.48C356.094 1130.98 355.495 1130.72 354.74 1130.72ZM368.109 1140H366.303V1125H368.109V1140ZM371.137 1129.79L370.111 1129.08C370.717 1128.24 371.029 1127.34 371.049 1126.41V1125H372.836V1126.27C372.829 1126.92 372.667 1127.57 372.348 1128.22C372.035 1128.87 371.632 1129.39 371.137 1129.79ZM378.812 1140.2C377.38 1140.2 376.215 1139.73 375.316 1138.79C374.418 1137.85 373.969 1136.59 373.969 1135.01V1134.68C373.969 1133.63 374.167 1132.7 374.564 1131.88C374.968 1131.05 375.528 1130.4 376.244 1129.94C376.967 1129.47 377.748 1129.24 378.588 1129.24C379.962 1129.24 381.029 1129.69 381.791 1130.6C382.553 1131.5 382.934 1132.8 382.934 1134.48V1135.23H375.775C375.801 1136.28 376.104 1137.12 376.684 1137.76C377.27 1138.4 378.012 1138.72 378.91 1138.72C379.548 1138.72 380.089 1138.59 380.531 1138.33C380.974 1138.07 381.361 1137.72 381.693 1137.29L382.797 1138.15C381.911 1139.52 380.583 1140.2 378.812 1140.2ZM378.588 1130.72C377.859 1130.72 377.247 1130.99 376.752 1131.52C376.257 1132.05 375.951 1132.79 375.834 1133.75H381.127V1133.61C381.075 1132.7 380.827 1131.99 380.385 1131.48C379.942 1130.98 379.343 1130.72 378.588 1130.72ZM379.467 1125H381.654L379.037 1127.87H377.582L379.467 1125ZM388.383 1137.55L391 1129.43H392.846L389.057 1140H387.68L383.852 1129.43H385.697L388.383 1137.55ZM398.832 1140.2C397.4 1140.2 396.234 1139.73 395.336 1138.79C394.438 1137.85 393.988 1136.59 393.988 1135.01V1134.68C393.988 1133.63 394.187 1132.7 394.584 1131.88C394.988 1131.05 395.548 1130.4 396.264 1129.94C396.986 1129.47 397.768 1129.24 398.607 1129.24C399.981 1129.24 401.049 1129.69 401.811 1130.6C402.572 1131.5 402.953 1132.8 402.953 1134.48V1135.23H395.795C395.821 1136.28 396.124 1137.12 396.703 1137.76C397.289 1138.4 398.031 1138.72 398.93 1138.72C399.568 1138.72 400.108 1138.59 400.551 1138.33C400.993 1138.07 401.381 1137.72 401.713 1137.29L402.816 1138.15C401.931 1139.52 400.603 1140.2 398.832 1140.2ZM398.607 1130.72C397.878 1130.72 397.266 1130.99 396.771 1131.52C396.277 1132.05 395.971 1132.79 395.854 1133.75H401.146V1133.61C401.094 1132.7 400.847 1131.99 400.404 1131.48C399.962 1130.98 399.363 1130.72 398.607 1130.72ZM406.762 1129.43L406.82 1130.76C407.628 1129.75 408.682 1129.24 409.984 1129.24C412.217 1129.24 413.344 1130.5 413.363 1133.02V1140H411.557V1133.01C411.55 1132.25 411.374 1131.68 411.029 1131.32C410.691 1130.95 410.16 1130.77 409.438 1130.77C408.852 1130.77 408.337 1130.93 407.895 1131.24C407.452 1131.55 407.107 1131.96 406.859 1132.47V1140H405.053V1129.43H406.762ZM420.473 1140.2C419.04 1140.2 417.875 1139.73 416.977 1138.79C416.078 1137.85 415.629 1136.59 415.629 1135.01V1134.68C415.629 1133.63 415.827 1132.7 416.225 1131.88C416.628 1131.05 417.188 1130.4 417.904 1129.94C418.627 1129.47 419.408 1129.24 420.248 1129.24C421.622 1129.24 422.689 1129.69 423.451 1130.6C424.213 1131.5 424.594 1132.8 424.594 1134.48V1135.23H417.436C417.462 1136.28 417.764 1137.12 418.344 1137.76C418.93 1138.4 419.672 1138.72 420.57 1138.72C421.208 1138.72 421.749 1138.59 422.191 1138.33C422.634 1138.07 423.021 1137.72 423.354 1137.29L424.457 1138.15C423.572 1139.52 422.243 1140.2 420.473 1140.2ZM420.248 1130.72C419.519 1130.72 418.907 1130.99 418.412 1131.52C417.917 1132.05 417.611 1132.79 417.494 1133.75H422.787V1133.61C422.735 1132.7 422.488 1131.99 422.045 1131.48C421.602 1130.98 421.003 1130.72 420.248 1130.72ZM428.393 1129.43L428.441 1130.61C429.216 1129.69 430.261 1129.24 431.576 1129.24C433.054 1129.24 434.06 1129.8 434.594 1130.94C434.945 1130.43 435.401 1130.02 435.961 1129.71C436.527 1129.39 437.195 1129.24 437.963 1129.24C440.281 1129.24 441.459 1130.47 441.498 1132.92V1140H439.691V1133.03C439.691 1132.27 439.519 1131.71 439.174 1131.34C438.829 1130.96 438.249 1130.77 437.436 1130.77C436.765 1130.77 436.208 1130.97 435.766 1131.38C435.323 1131.77 435.066 1132.31 434.994 1132.99V1140H433.178V1133.08C433.178 1131.54 432.426 1130.77 430.922 1130.77C429.737 1130.77 428.926 1131.28 428.49 1132.29V1140H426.684V1129.43H428.393ZM448.617 1140.2C447.185 1140.2 446.02 1139.73 445.121 1138.79C444.223 1137.85 443.773 1136.59 443.773 1135.01V1134.68C443.773 1133.63 443.972 1132.7 444.369 1131.88C444.773 1131.05 445.333 1130.4 446.049 1129.94C446.771 1129.47 447.553 1129.24 448.393 1129.24C449.766 1129.24 450.834 1129.69 451.596 1130.6C452.357 1131.5 452.738 1132.8 452.738 1134.48V1135.23H445.58C445.606 1136.28 445.909 1137.12 446.488 1137.76C447.074 1138.4 447.816 1138.72 448.715 1138.72C449.353 1138.72 449.893 1138.59 450.336 1138.33C450.779 1138.07 451.166 1137.72 451.498 1137.29L452.602 1138.15C451.716 1139.52 450.388 1140.2 448.617 1140.2ZM448.393 1130.72C447.663 1130.72 447.051 1130.99 446.557 1131.52C446.062 1132.05 445.756 1132.79 445.639 1133.75H450.932V1133.61C450.88 1132.7 450.632 1131.99 450.189 1131.48C449.747 1130.98 449.148 1130.72 448.393 1130.72ZM456.547 1129.43L456.605 1130.76C457.413 1129.75 458.467 1129.24 459.77 1129.24C462.003 1129.24 463.129 1130.5 463.148 1133.02V1140H461.342V1133.01C461.335 1132.25 461.16 1131.68 460.814 1131.32C460.476 1130.95 459.945 1130.77 459.223 1130.77C458.637 1130.77 458.122 1130.93 457.68 1131.24C457.237 1131.55 456.892 1131.96 456.645 1132.47V1140H454.838V1129.43H456.547ZM468.324 1126.88V1129.43H470.297V1130.83H468.324V1137.38C468.324 1137.81 468.412 1138.13 468.588 1138.34C468.764 1138.55 469.063 1138.65 469.486 1138.65C469.695 1138.65 469.981 1138.61 470.346 1138.54V1140C469.87 1140.13 469.408 1140.2 468.959 1140.2C468.152 1140.2 467.543 1139.95 467.133 1139.46C466.723 1138.97 466.518 1138.28 466.518 1137.38V1130.83H464.594V1129.43H466.518V1126.88H468.324ZM479.818 1132.01H481.176C482.029 1132 482.699 1131.77 483.188 1131.34C483.676 1130.9 483.92 1130.31 483.92 1129.57C483.92 1127.9 483.09 1127.07 481.43 1127.07C480.648 1127.07 480.023 1127.29 479.555 1127.74C479.092 1128.19 478.861 1128.78 478.861 1129.51H477.055C477.055 1128.39 477.465 1127.45 478.285 1126.71C479.112 1125.96 480.16 1125.59 481.43 1125.59C482.771 1125.59 483.822 1125.94 484.584 1126.65C485.346 1127.36 485.727 1128.35 485.727 1129.61C485.727 1130.23 485.525 1130.83 485.121 1131.41C484.724 1131.99 484.18 1132.42 483.49 1132.71C484.271 1132.95 484.874 1133.36 485.297 1133.94C485.727 1134.51 485.941 1135.21 485.941 1136.04C485.941 1137.31 485.525 1138.32 484.691 1139.07C483.858 1139.82 482.774 1140.2 481.439 1140.2C480.105 1140.2 479.018 1139.83 478.178 1139.11C477.344 1138.39 476.928 1137.43 476.928 1136.25H478.744C478.744 1137 478.988 1137.6 479.477 1138.05C479.965 1138.5 480.619 1138.72 481.439 1138.72C482.312 1138.72 482.979 1138.49 483.441 1138.04C483.904 1137.58 484.135 1136.93 484.135 1136.07C484.135 1135.25 483.881 1134.61 483.373 1134.17C482.865 1133.73 482.133 1133.5 481.176 1133.49H479.818V1132.01Z" fill="black"/>
</g>
<g id="room_5">
<rect id="room_6" x="612" y="1084" width="150" height="100" rx="10" fill="#3260BA"/>
<path id="text_9" d="M657.369 1122.66C655.761 1122.2 654.589 1121.63 653.854 1120.96C653.124 1120.29 652.76 1119.45 652.76 1118.46C652.76 1117.34 653.206 1116.42 654.098 1115.69C654.996 1114.95 656.161 1114.59 657.594 1114.59C658.57 1114.59 659.439 1114.77 660.201 1115.15C660.969 1115.53 661.562 1116.05 661.979 1116.71C662.402 1117.38 662.613 1118.1 662.613 1118.89H660.729C660.729 1118.03 660.455 1117.36 659.908 1116.87C659.361 1116.38 658.59 1116.13 657.594 1116.13C656.669 1116.13 655.947 1116.33 655.426 1116.74C654.911 1117.15 654.654 1117.71 654.654 1118.43C654.654 1119.01 654.898 1119.5 655.387 1119.91C655.882 1120.31 656.718 1120.67 657.896 1121C659.081 1121.33 660.006 1121.7 660.67 1122.11C661.34 1122.5 661.835 1122.97 662.154 1123.5C662.48 1124.04 662.643 1124.66 662.643 1125.39C662.643 1126.54 662.193 1127.46 661.295 1128.16C660.396 1128.85 659.195 1129.2 657.691 1129.2C656.715 1129.2 655.803 1129.01 654.957 1128.64C654.111 1128.26 653.456 1127.75 652.994 1127.1C652.538 1126.44 652.311 1125.71 652.311 1124.88H654.195C654.195 1125.74 654.511 1126.42 655.143 1126.92C655.781 1127.41 656.63 1127.66 657.691 1127.66C658.681 1127.66 659.439 1127.46 659.967 1127.06C660.494 1126.65 660.758 1126.1 660.758 1125.41C660.758 1124.71 660.514 1124.17 660.025 1123.79C659.537 1123.41 658.652 1123.03 657.369 1122.66ZM671.295 1129C671.191 1128.79 671.106 1128.42 671.041 1127.89C670.201 1128.76 669.199 1129.2 668.033 1129.2C666.992 1129.2 666.135 1128.9 665.465 1128.32C664.801 1127.72 664.469 1126.98 664.469 1126.07C664.469 1124.97 664.885 1124.12 665.719 1123.51C666.559 1122.9 667.737 1122.59 669.254 1122.59H671.012V1121.76C671.012 1121.13 670.823 1120.63 670.445 1120.26C670.068 1119.88 669.511 1119.69 668.775 1119.69C668.131 1119.69 667.59 1119.86 667.154 1120.18C666.718 1120.51 666.5 1120.9 666.5 1121.36H664.684C664.684 1120.84 664.869 1120.33 665.24 1119.84C665.618 1119.35 666.126 1118.95 666.764 1118.67C667.408 1118.38 668.115 1118.24 668.883 1118.24C670.1 1118.24 671.054 1118.54 671.744 1119.16C672.434 1119.76 672.792 1120.6 672.818 1121.67V1126.53C672.818 1127.5 672.942 1128.27 673.189 1128.84V1129H671.295ZM668.297 1127.62C668.863 1127.62 669.4 1127.48 669.908 1127.18C670.416 1126.89 670.784 1126.51 671.012 1126.04V1123.87H669.596C667.382 1123.87 666.275 1124.52 666.275 1125.82C666.275 1126.38 666.464 1126.83 666.842 1127.14C667.219 1127.46 667.704 1127.62 668.297 1127.62ZM677.613 1129H675.807V1114H677.613V1129ZM682.477 1129H680.67V1114H682.477V1129ZM689.762 1129.2C688.329 1129.2 687.164 1128.73 686.266 1127.79C685.367 1126.85 684.918 1125.59 684.918 1124.01V1123.68C684.918 1122.63 685.117 1121.7 685.514 1120.88C685.917 1120.05 686.477 1119.4 687.193 1118.94C687.916 1118.47 688.697 1118.24 689.537 1118.24C690.911 1118.24 691.979 1118.69 692.74 1119.6C693.502 1120.5 693.883 1121.8 693.883 1123.48V1124.23H686.725C686.751 1125.28 687.053 1126.12 687.633 1126.76C688.219 1127.4 688.961 1127.72 689.859 1127.72C690.497 1127.72 691.038 1127.59 691.48 1127.33C691.923 1127.07 692.311 1126.72 692.643 1126.29L693.746 1127.15C692.861 1128.51 691.533 1129.2 689.762 1129.2ZM689.537 1119.72C688.808 1119.72 688.196 1119.99 687.701 1120.52C687.206 1121.05 686.9 1121.79 686.783 1122.75H692.076V1122.61C692.024 1121.7 691.777 1120.99 691.334 1120.48C690.891 1119.98 690.292 1119.72 689.537 1119.72ZM700.504 1123.63C700.504 1122.01 700.888 1120.71 701.656 1119.72C702.424 1118.73 703.43 1118.24 704.674 1118.24C705.911 1118.24 706.891 1118.66 707.613 1119.51V1114H709.42V1129H707.76L707.672 1127.87C706.949 1128.75 705.943 1129.2 704.654 1129.2C703.43 1129.2 702.431 1128.69 701.656 1127.69C700.888 1126.69 700.504 1125.38 700.504 1123.77V1123.63ZM702.311 1123.83C702.311 1125.03 702.558 1125.97 703.053 1126.65C703.548 1127.32 704.231 1127.66 705.104 1127.66C706.249 1127.66 707.086 1127.15 707.613 1126.12V1121.27C707.073 1120.27 706.243 1119.77 705.123 1119.77C704.238 1119.77 703.548 1120.11 703.053 1120.8C702.558 1121.48 702.311 1122.49 702.311 1123.83ZM716.617 1129.2C715.185 1129.2 714.02 1128.73 713.121 1127.79C712.223 1126.85 711.773 1125.59 711.773 1124.01V1123.68C711.773 1122.63 711.972 1121.7 712.369 1120.88C712.773 1120.05 713.333 1119.4 714.049 1118.94C714.771 1118.47 715.553 1118.24 716.393 1118.24C717.766 1118.24 718.834 1118.69 719.596 1119.6C720.357 1120.5 720.738 1121.8 720.738 1123.48V1124.23H713.58C713.606 1125.28 713.909 1126.12 714.488 1126.76C715.074 1127.4 715.816 1127.72 716.715 1127.72C717.353 1127.72 717.893 1127.59 718.336 1127.33C718.779 1127.07 719.166 1126.72 719.498 1126.29L720.602 1127.15C719.716 1128.51 718.388 1129.2 716.617 1129.2ZM716.393 1119.72C715.663 1119.72 715.051 1119.99 714.557 1120.52C714.062 1121.05 713.756 1121.79 713.639 1122.75H718.932V1122.61C718.88 1121.7 718.632 1120.99 718.189 1120.48C717.747 1119.98 717.148 1119.72 716.393 1119.72ZM659.693 1143.05C659.42 1143.01 659.124 1142.99 658.805 1142.99C657.62 1142.99 656.816 1143.49 656.393 1144.5V1152H654.586V1141.43H656.344L656.373 1142.65C656.965 1141.71 657.805 1141.24 658.893 1141.24C659.244 1141.24 659.511 1141.28 659.693 1141.38V1143.05ZM665.553 1152.2C664.12 1152.2 662.955 1151.73 662.057 1150.79C661.158 1149.85 660.709 1148.59 660.709 1147.01V1146.68C660.709 1145.63 660.908 1144.7 661.305 1143.88C661.708 1143.05 662.268 1142.4 662.984 1141.94C663.707 1141.47 664.488 1141.24 665.328 1141.24C666.702 1141.24 667.77 1141.69 668.531 1142.6C669.293 1143.5 669.674 1144.8 669.674 1146.48V1147.23H662.516C662.542 1148.28 662.844 1149.12 663.424 1149.76C664.01 1150.4 664.752 1150.72 665.65 1150.72C666.288 1150.72 666.829 1150.59 667.271 1150.33C667.714 1150.07 668.102 1149.72 668.434 1149.29L669.537 1150.15C668.652 1151.51 667.324 1152.2 665.553 1152.2ZM665.328 1142.72C664.599 1142.72 663.987 1142.99 663.492 1143.52C662.997 1144.05 662.691 1144.79 662.574 1145.75H667.867V1145.61C667.815 1144.7 667.568 1143.99 667.125 1143.48C666.682 1142.98 666.083 1142.72 665.328 1142.72ZM666.207 1137H668.395L665.777 1139.87H664.322L666.207 1137ZM678.297 1150.96C677.594 1151.78 676.562 1152.2 675.201 1152.2C674.075 1152.2 673.215 1151.87 672.623 1151.22C672.037 1150.56 671.741 1149.59 671.734 1148.31V1141.43H673.541V1148.26C673.541 1149.86 674.192 1150.66 675.494 1150.66C676.874 1150.66 677.792 1150.15 678.248 1149.12V1141.43H680.055V1152H678.336L678.297 1150.96ZM684.518 1141.43L684.576 1142.76C685.383 1141.75 686.438 1141.24 687.74 1141.24C689.973 1141.24 691.1 1142.5 691.119 1145.02V1152H689.312V1145.01C689.306 1144.25 689.13 1143.68 688.785 1143.32C688.447 1142.95 687.916 1142.77 687.193 1142.77C686.607 1142.77 686.093 1142.93 685.65 1143.24C685.208 1143.55 684.863 1143.96 684.615 1144.47V1152H682.809V1141.43H684.518ZM695.807 1152H694V1141.43H695.807V1152ZM693.854 1138.63C693.854 1138.34 693.941 1138.09 694.117 1137.89C694.299 1137.69 694.566 1137.59 694.918 1137.59C695.27 1137.59 695.536 1137.69 695.719 1137.89C695.901 1138.09 695.992 1138.34 695.992 1138.63C695.992 1138.92 695.901 1139.17 695.719 1139.36C695.536 1139.56 695.27 1139.66 694.918 1139.66C694.566 1139.66 694.299 1139.56 694.117 1139.36C693.941 1139.17 693.854 1138.92 693.854 1138.63ZM698.229 1146.62C698.229 1145.58 698.43 1144.65 698.834 1143.83C699.244 1143 699.811 1142.36 700.533 1141.91C701.262 1141.46 702.092 1141.24 703.023 1141.24C704.462 1141.24 705.624 1141.74 706.51 1142.73C707.402 1143.73 707.848 1145.05 707.848 1146.71V1146.83C707.848 1147.86 707.649 1148.79 707.252 1149.61C706.861 1150.42 706.298 1151.06 705.562 1151.51C704.833 1151.97 703.993 1152.2 703.043 1152.2C701.611 1152.2 700.449 1151.7 699.557 1150.7C698.671 1149.71 698.229 1148.39 698.229 1146.75V1146.62ZM700.045 1146.83C700.045 1148.01 700.315 1148.95 700.855 1149.66C701.402 1150.37 702.132 1150.72 703.043 1150.72C703.961 1150.72 704.69 1150.36 705.23 1149.65C705.771 1148.92 706.041 1147.91 706.041 1146.62C706.041 1145.46 705.764 1144.52 705.211 1143.81C704.664 1143.08 703.935 1142.72 703.023 1142.72C702.132 1142.72 701.412 1143.08 700.865 1143.79C700.318 1144.5 700.045 1145.51 700.045 1146.83ZM711.822 1141.43L711.881 1142.76C712.688 1141.75 713.743 1141.24 715.045 1141.24C717.278 1141.24 718.404 1142.5 718.424 1145.02V1152H716.617V1145.01C716.611 1144.25 716.435 1143.68 716.09 1143.32C715.751 1142.95 715.221 1142.77 714.498 1142.77C713.912 1142.77 713.398 1142.93 712.955 1143.24C712.512 1143.55 712.167 1143.96 711.92 1144.47V1152H710.113V1141.43H711.822Z" fill="black"/>
</g>
</g>
<path id="curr_time" d="M529 82.75V76.5H522.75V70.25H516.5V51.5H522.75V45.25H529V39H547.75V45.25H554V51.5H560.25V70.25H554V76.5H547.75V82.75H529ZM535.25 76.5H547.75V51.5H541.5V45.25H529V70.25H535.25V76.5ZM579 82.75V76.5H572.75V70.25H566.5V51.5H572.75V45.25H579V39H597.75V45.25H604V51.5H610.25V70.25H604V76.5H597.75V82.75H579ZM585.25 76.5H597.75V51.5H591.5V45.25H579V70.25H585.25V76.5ZM629 57.75V45.25H641.5V57.75H629ZM629 76.5V64H641.5V76.5H629ZM679 82.75V76.5H672.75V70.25H666.5V51.5H672.75V45.25H679V39H697.75V45.25H704V51.5H710.25V70.25H704V76.5H697.75V82.75H679ZM685.25 76.5H697.75V51.5H691.5V45.25H679V70.25H685.25V76.5ZM729 82.75V76.5H722.75V70.25H716.5V51.5H722.75V45.25H729V39H747.75V45.25H754V51.5H760.25V70.25H754V76.5H747.75V82.75H729ZM735.25 76.5H747.75V51.5H741.5V45.25H729V70.25H735.25V76.5Z" fill="#001BA7"/>
<g id="Elevator_floor 1" clip-path="url(#clip0)">
<path id="Vector" d="M215 63H38V158H215V63Z" fill="#E5E5E5"/>
<path id="Vector_2" d="M210.844 63.3682H42.1561C40.0633 63.3682 38.3667 65.0717 38.3667 67.1731V153.827C38.3667 155.928 40.0633 157.632 42.1561 157.632H210.844C212.937 157.632 214.633 155.928 214.633 153.827V67.1731C214.633 65.0717 212.937 63.3682 210.844 63.3682Z" fill="#272727" stroke="black" stroke-width="3"/>
<path id="Vector_3" d="M51.9351 109.886L60.2472 106.698H76.8715L85.1837 109.886L76.8715 113.075H60.2472L51.9351 109.886Z" fill="#0F0F0F"/>
<path id="Vector_4" d="M100.341 110.377L108.653 107.188H125.278L133.59 110.377L125.278 113.566H108.653L100.341 110.377Z" fill="#00FF00"/>
<path id="Vector_5" d="M100.341 75.2739L108.653 72.085H125.278L133.59 75.2739L125.278 78.4627H108.653L100.341 75.2739Z" fill="#0F0F0F"/>
<path id="Vector_6" d="M134.323 76.5013L137.499 84.8475V101.54L134.323 109.886L131.147 101.54V84.8475L134.323 76.5013Z" fill="#00FF00"/>
<path id="Vector_7" d="M134.323 111.114L137.499 119.46V136.152L134.323 144.499L131.147 136.152V119.46L134.323 111.114Z" fill="#00FF00"/>
<path id="Vector_8" d="M100.341 145.481L108.653 142.292H125.278L133.59 145.481L125.278 148.669H108.653L100.341 145.481Z" fill="#0F0F0F"/>
<path id="Vector_9" d="M98.8743 111.114L102.05 119.46V136.152L98.8743 144.499L95.6986 136.152V119.46L98.8743 111.114Z" fill="#0F0F0F"/>
<path id="Vector_10" d="M98.8743 76.5013L102.05 84.8475V101.54L98.8743 109.886L95.6986 101.54V84.8475L98.8743 76.5013Z" fill="#00FF00"/>
<path id="Vector_11" d="M186.959 80.3588C186.243 79.6398 185.083 79.6398 184.367 80.3588L172.698 92.0754C171.982 92.7944 171.982 93.9599 172.698 94.6789C173.414 95.3979 174.575 95.3979 175.291 94.6789L185.663 84.2643L196.035 94.6789C196.751 95.3979 197.912 95.3979 198.628 94.6789C199.344 93.9599 199.344 92.7944 198.628 92.0754L186.959 80.3588ZM187.497 138.12V81.6606H183.829V138.12H187.497Z" fill="#00FF00"/>
</g>
<defs>
<linearGradient id="paint0_linear" x1="402" y1="6" x2="402" y2="1230" gradientUnits="userSpaceOnUse">
<stop stop-color="white"/>
<stop offset="1" stop-color="#96FF9A" stop-opacity="0"/>
</linearGradient>
<linearGradient id="paint1_linear" x1="402" y1="6" x2="402" y2="1230" gradientUnits="userSpaceOnUse">
<stop stop-color="#6BFF7A"/>
<stop offset="1" stop-color="white" stop-opacity="0"/>
</linearGradient>
<linearGradient id="paint2_linear" x1="401.5" y1="487" x2="401.5" y2="843" gradientUnits="userSpaceOnUse">
<stop offset="0.255208" stop-color="#62C253"/>
<stop offset="0.708333" stop-color="white" stop-opacity="0"/>
</linearGradient>
<linearGradient id="paint3_linear" x1="401.5" y1="487" x2="401.5" y2="843" gradientUnits="userSpaceOnUse">
<stop stop-color="#05FF00"/>
<stop offset="0.520833" stop-color="white" stop-opacity="0"/>
</linearGradient>
<linearGradient id="paint4_linear" x1="401.5" y1="406" x2="401.5" y2="762" gradientUnits="userSpaceOnUse">
<stop offset="0.255208" stop-color="#62C253"/>
<stop offset="0.708333" stop-color="white" stop-opacity="0"/>
</linearGradient>
<linearGradient id="paint5_linear" x1="401.5" y1="406" x2="401.5" y2="762" gradientUnits="userSpaceOnUse">
<stop stop-color="#05FF00"/>
<stop offset="0.520833" stop-color="white" stop-opacity="0"/>
</linearGradient>
<linearGradient id="paint6_linear" x1="401.5" y1="329" x2="401.5" y2="685" gradientUnits="userSpaceOnUse">
<stop offset="0.255208" stop-color="#62C253"/>
<stop offset="0.708333" stop-color="white" stop-opacity="0"/>
</linearGradient>
<linearGradient id="paint7_linear" x1="401.5" y1="329" x2="401.5" y2="685" gradientUnits="userSpaceOnUse">
<stop stop-color="#05FF00"/>
<stop offset="0.520833" stop-color="white" stop-opacity="0"/>
</linearGradient>
<linearGradient id="paint8_linear" x1="401.5" y1="257" x2="401.5" y2="613" gradientUnits="userSpaceOnUse">
<stop offset="0.255208" stop-color="#62C253"/>
<stop offset="0.708333" stop-color="white" stop-opacity="0"/>
</linearGradient>
<linearGradient id="paint9_linear" x1="401.5" y1="257" x2="401.5" y2="613" gradientUnits="userSpaceOnUse">
<stop stop-color="#05FF00"/>
<stop offset="0.520833" stop-color="white" stop-opacity="0"/>
</linearGradient>
<linearGradient id="paint10_linear" x1="401.5" y1="181" x2="401.5" y2="537" gradientUnits="userSpaceOnUse">
<stop offset="0.255208" stop-color="#62C253"/>
<stop offset="0.708333" stop-color="white" stop-opacity="0"/>
</linearGradient>
<linearGradient id="paint11_linear" x1="401.5" y1="181" x2="401.5" y2="537" gradientUnits="userSpaceOnUse">
<stop stop-color="#05FF00"/>
<stop offset="0.520833" stop-color="white" stop-opacity="0"/>
</linearGradient>
<linearGradient id="paint12_linear" x1="401.5" y1="97" x2="401.5" y2="453" gradientUnits="userSpaceOnUse">
<stop offset="0.255208" stop-color="#62C253"/>
<stop offset="0.708333" stop-color="white" stop-opacity="0"/>
</linearGradient>
<linearGradient id="paint13_linear" x1="401.5" y1="97" x2="401.5" y2="453" gradientUnits="userSpaceOnUse">
<stop stop-color="#05FF00"/>
<stop offset="0.520833" stop-color="white" stop-opacity="0"/>
</linearGradient>
<clipPath id="clip0">
<rect width="177" height="95" fill="white" transform="translate(38 63)"/>
</clipPath>
</defs>
</svg>
